<?xml version="1.0" standalone="no"?>
<!DOCTYPE svg PUBLIC "-//W3C//DTD SVG 1.1//EN" "http://www.w3.org/Graphics/SVG/1.1/DTD/svg11.dtd" >
<svg>
<metadata>
Created by FontForge 20120731 at Wed Apr 27 04:33:13 2016
 By ,,,
(c) 2000-2012 Typodermic Fonts Inc. See attached license agreement. If agreement is missing visit typodermicfonts.com for more info.
</metadata>
<defs>
<font id="Iomanoid-Regular" horiz-adv-x="482" >
  <font-face 
    font-family="Iomanoid"
    font-weight="400"
    font-stretch="normal"
    units-per-em="1000"
    panose-1="4 1 0 0 0 0 0 0 0 0"
    ascent="700"
    descent="-300"
    x-height="585"
    cap-height="585"
    bbox="-131 -300 1044 900"
    underline-thickness="50"
    underline-position="-75"
    unicode-range="U+0017-2122"
  />
<missing-glyph horiz-adv-x="452" 
d="M129 0q-97 0 -97 84v488q0 85 97 85h193q98 0 98 -85v-488q0 -84 -98 -84h-193zM368 572q0 39 -46 39h-193q-46 0 -46 -39v-488q0 -39 46 -39h193q46 0 46 39v488z" />
    <glyph glyph-name=".notdef" horiz-adv-x="452" 
d="M129 0q-97 0 -97 84v488q0 85 97 85h193q98 0 98 -85v-488q0 -84 -98 -84h-193zM368 572q0 39 -46 39h-193q-46 0 -46 -39v-488q0 -39 46 -39h193q46 0 46 39v488z" />
    <glyph glyph-name="uni0017" horiz-adv-x="270" 
 />
    <glyph glyph-name="space" unicode=" " horiz-adv-x="270" 
 />
    <glyph glyph-name="exclam" unicode="!" horiz-adv-x="268" 
d="M171 555l17 17h-112l18 -17h77zM77 67q0 27 17.5 46.5t40.5 19.5q18 0 35 -14l12 12q-19 19 -47 19q-30 0 -52.5 -24.5t-22.5 -58.5q0 -32 18 -56l13 13q-14 20 -14 43zM86 189v356l-18 18v-391zM90 67q0 -23 13.5 -38t31.5 -15q19 0 31.5 15t12.5 38q0 21 -12.5 37
t-31.5 16q-18 0 -31.5 -16t-13.5 -37zM164 195v347h-65v-347h65zM47 67q0 27 13 50t34 35h-39v433h152v-433h-31q21 -12 34 -35t13 -50q0 -42 -25.5 -69t-62.5 -27q-18 0 -34 7.5t-28 20t-19 30t-7 38.5z" />
    <glyph glyph-name="quotedbl" unicode="&#x22;" horiz-adv-x="303" 
d="M183 477l25 67h-25v-67zM97 477l25 67h-25v-67zM153 522v-113l17 18v109zM84 550l-17 17v-159l17 17v125zM216 558l28 16h-167l18 -17h121v1zM192 380l-52 9v78l-34 -87l-52 9v198h217z" />
    <glyph glyph-name="numbersign" unicode="#" horiz-adv-x="428" 
d="M156 211h99l29 163h-100zM297 212h82v-66h-91l-27 -146h-41l24 146h-98l-25 -146h-43l24 146h-78v66h91l26 161h-84v65h96l23 143h44l-24 -143h98l24 143h43l-24 -143h74v-65h-86z" />
    <glyph glyph-name="dollar" unicode="$" horiz-adv-x="403" 
d="M181 160l16 17h-16v-17zM169 160v21l-26 29v-20zM163 11l-17 -8v-46l17 17v37zM238 531l17 17h-74l18 -17h39zM189 470v53l-17 17v-63zM131 184v26l-73 -83h23zM327 401h23l-81 91l-18 -6zM184 459l-18 7l-116 -125h25zM327 189h22l-125 140h-21zM91 120l85 -97v-45h34
v84l105 121l-135 153l50 45l36 -41l49 55l-81 91v32h-32v-58l-115 -125l135 -149l-47 -53l-35 41zM159 476v85h118v-60l96 -106l-96 -106l95 -106l-119 -137v-111h-120v72l-98 113l92 105l-98 111z" />
    <glyph glyph-name="percent" unicode="%" horiz-adv-x="794" 
d="M280 453h-23l-7 -8v-27zM558 68l31 35h-23l-8 -9v-26zM545 68v26l-8 9h-23zM205 453l33 -37v25l-11 12h-22zM634 489h22l-74 86l-3 -24zM560 296l159 -180h22l-179 202zM410 466h22l-182 208v-26zM238 649v26l-185 -209h22zM541 329l-182 -208l23 -8l166 190zM551 42
l-59 67l59 70l61 -70zM243 390l-61 70l61 67l60 -67zM155 81l412 467l2 29l-435 -496h21zM622 484l-47 53l-409 -463l48 -55zM398 460l-155 176l-155 -176l155 -178zM708 109l-157 177l-153 -177l153 -176zM679 484l-123 -140l209 -235l-214 -241l-208 233l-129 -147
l-105 120l131 148l-210 238l213 241l208 -237l124 139z" />
    <glyph glyph-name="ampersand" unicode="&#x26;" horiz-adv-x="619" 
d="M264 149l-10 11l-9 -12l9 -10zM210 143l37 -43v26l-15 17h-22zM300 145h-23l-18 -21v-26zM416 273v26l-43 -49v-26zM480 213h23l-75 86v-26zM81 153l104 118h-24l-103 -118h23zM548 16h23l-111 124h-22zM378 469h23l-141 160v-26zM361 228v26l-129 147h-23zM248 603v26
l-193 -218h24zM254 224l68 -75l-74 -77l-61 77zM496 -36l40 46l-120 136l53 60l-47 54l-54 -60l-181 207l67 76l65 -77l49 55l-114 129l-162 -184l115 -129l-114 -130l161 -183l121 137zM375 36l-121 -137l-218 248l113 130l-115 129l220 250l171 -195l-106 -120l-66 75
l-8 -9l123 -143l54 62l104 -120l-53 -60l120 -136l-97 -111z" />
    <glyph glyph-name="quotesingle" unicode="'" horiz-adv-x="208" 
d="M97 543v-66l25 67h-24zM133 557l21 17h-81l17 -17h43zM84 427v118l-17 18v-154zM106 380l-52 9v198h132z" />
    <glyph glyph-name="parenleft" unicode="(" horiz-adv-x="392" 
d="M309 365h21l-74 88v-26zM311 79h23l-118 133h-23zM63 223l181 204v26l-203 -230h22zM251 19l48 55l-128 144l125 142l-46 54l-174 -196zM356 74l-105 -119l-232 263l231 262l102 -121l-124 -141z" />
    <glyph glyph-name="parenright" unicode=")" horiz-adv-x="392" 
d="M81 367l53 60v26l-76 -86h23zM84 81l113 129h-24l-112 -129h23zM328 223h22l-204 230v-26zM142 19l174 198l-176 197l-48 -53l127 -145l-124 -143zM36 361l104 119l233 -263l-231 -262l-104 120l123 141z" />
    <glyph glyph-name="asterisk" unicode="*" horiz-adv-x="456" 
d="M174 342l-12 16l-97 -16l31 -13zM280 342l80 -13l35 13l-102 16zM271 351l12 14l-48 107v-42zM152 236l-18 -4l-15 -118l21 35zM185 350l38 84v42l-50 -110zM301 156l-13 92l60 69l-84 15l-36 81l-36 -81l-84 -15l59 -69l-12 -92l72 43zM101 74l20 161l-96 114l135 22
l68 148l66 -148l137 -22l-97 -114l23 -160l-129 73z" />
    <glyph glyph-name="plus" unicode="+" horiz-adv-x="405" 
d="M332 271l17 17h-73l-18 -17h74zM152 271l-18 17h-78l18 -17h78zM157 283v82l-17 17v-82zM157 158l-17 -18v-87l17 17v88zM240 374l18 17h-110l18 -17h74zM65 262l-17 17v-119l17 17v85zM78 179h92v-103h65v103h91v79h-91v103h-65v-103h-92v-79zM127 136h-92v165h92v103
h151v-103h91v-165h-91v-103h-151v103z" />
    <glyph glyph-name="comma" unicode="," horiz-adv-x="220" 
d="M159 122l17 18h-101l17 -18h67zM84 -33v146l-17 17v-210zM153 43v66h-56v-128zM196 29l-142 -163v287h142v-124z" />
    <glyph glyph-name="hyphen" unicode="-" horiz-adv-x="335" 
d="M52 176v86l-17 17v-120zM273 271l18 17h-248l18 -17h212zM270 179v79h-205v-79h205zM313 301v-165h-291v165h291z" />
    <glyph glyph-name="period" unicode="." horiz-adv-x="259" 
d="M71 67q0 27 17 46.5t41 19.5q21 0 34 -13l12 12q-21 18 -46 18q-31 0 -53 -24.5t-22 -58.5q0 -27 12 -46l12 12q-7 13 -7 34zM84 67q0 -23 13 -38t32 -15q18 0 31 15t13 38q0 21 -13 37t-31 16q-19 0 -32 -16t-13 -37zM41 67q0 19 7 36.5t19 30.5t28 21t34 8t34 -8
t28 -21t19 -30.5t7 -36.5q0 -21 -7 -38.5t-19 -30t-28 -20t-34 -7.5t-34 7.5t-28 20t-19 30t-7 38.5z" />
    <glyph glyph-name="slash" unicode="/" horiz-adv-x="414" 
d="M349 516l24 4l-83 57l9 -27zM62 49l224 500l-8 25l-237 -534zM338 508l-42 30l-220 -493l42 -26zM138 -44l-117 72l256 574l116 -79z" />
    <glyph glyph-name="zero" unicode="0" horiz-adv-x="467" 
d="M243 104l-10 17h-3l-7 -17h20zM173 152l39 -44l7 18l-33 37l2 -6zM293 153l-16 7l-32 -35l8 -17zM292 556l6 17h-129l8 -17h115zM382 459l19 5l-91 104l-7 -19zM82 456l84 96l-8 17l-94 -106zM297 164v229l-17 -7v-213zM77 445l-17 6v-347l17 7v334zM229 134h7l31 34v219
l-30 34h-7l-31 -35v-219zM256 91h-44l-56 61v251l56 62h45l53 -62v-250zM174 13h117l85 95v339l-85 96h-117l-84 -96v-339zM47 94v368l108 124h156l109 -124v-368l-109 -124h-156z" />
    <glyph glyph-name="one" unicode="1" horiz-adv-x="246" 
d="M168 555l18 17h-109l18 -17h73zM84 16v532l-17 17v-590zM163 108v434h-66v-508zM206 92l-152 -171v664h152v-493z" />
    <glyph glyph-name="two" unicode="2" horiz-adv-x="524" 
d="M218 104h216l18 17h-188zM147 396l137 156v26l-160 -182h23zM439 388h22l-164 189v-26zM71 100v-4l245 282l-19 -3l-243 -275h17zM153 13h280v78h-258l253 289l-138 158l-133 -150l51 -59l88 102l41 -48l-253 -291zM476 134v-164h-342l-107 122l167 185l-94 111l190 216
l196 -224l-215 -246h205z" />
    <glyph glyph-name="three" unicode="3" horiz-adv-x="495" 
d="M249 97l41 48h-23l-18 -22v-26zM76 150l54 62v26l-76 -88h22zM142 209h-1l96 -108v26l-95 107v-25zM315 271l102 -117h23l-103 117h-22zM186 283l103 118h-24l-102 -118h23zM238 603v26l-187 -213h23zM419 413h23l-192 217v-26zM311 149l-66 -77l-111 125l-47 -54
l158 -179l162 183l-115 130l116 129l-163 184l-159 -179l48 -55l111 127l66 -76l-113 -130zM245 417l-111 -126l-105 120l216 244l221 -249l-117 -129l115 -130l-219 -248l-215 244l104 120l110 -125l9 11l-113 128l113 130z" />
    <glyph glyph-name="four" unicode="4" horiz-adv-x="507" 
d="M342 361h81l17 17h-83zM341 21v85l-18 -18v-112zM414 488h23l-78 89v-26zM196 218h136l-17 17h-82zM341 359l-18 -19v-96l18 -18v133zM310 315l-59 -67h59v67zM62 223l285 324v27l-309 -351h24zM401 483l-46 54l-280 -319l80 -91h199v-93l65 74v240h-65v-143h-199z
M310 84h-174l-120 134l339 385l104 -120l-82 -92h85v-298l-152 -174v165z" />
    <glyph glyph-name="five" unicode="5" horiz-adv-x="551" 
d="M221 391h182l126 -144l-379 -432l-106 121l257 290h-231v360h350v-165h-199v-30zM376 543h-262v-273h282l-295 -334l49 -55l322 366l-89 101h-205v117h198v78zM357 245l-38 -18l-251 -284h22zM101 265v282l-18 17v-316zM380 556l17 17h-305l17 -17h271zM382 361l8 17
h-174l-17 -17h183zM482 255h23l-104 118l-7 -18z" />
    <glyph glyph-name="six" unicode="6" horiz-adv-x="520" 
d="M249 153v26l-33 38h-23zM316 217h-23l-32 -38v-26zM280 222l-25 29l-26 -29l26 -30zM417 492h23l-76 85v-26zM444 225h22l-117 135h-23zM66 225l286 325v26l-309 -351h23zM255 315l83 -93l-83 -95l-83 95zM432 219l-130 149l104 118l-47 52l-281 -319l178 -201zM359 368
l130 -149l-233 -265l-235 265l338 384l105 -117z" />
    <glyph glyph-name="seven" unicode="7" horiz-adv-x="525" 
d="M69 460v89l-17 17v-123zM459 476h22l-80 92l-8 -17zM314 443l-38 -18l-112 -126l19 -5zM178 283l-18 4v-310l18 44v262zM382 557l8 17h-328l17 -17h303zM191 34l65 74v142l192 218l-66 76h-300v-78h269l-160 -182v-250zM39 422v165h363l103 -119l-206 -235v-140
l-152 -174v380l109 123h-217z" />
    <glyph glyph-name="eight" unicode="8" horiz-adv-x="499" 
d="M259 149l-9 11l-10 -12l10 -10zM259 407l-9 10l-11 -10l11 -12zM243 100v26l-15 17h-23zM243 357v26l-15 18h-23zM255 98l40 45h-24l-16 -19v-26zM255 355l40 46h-24l-16 -19v-27zM319 271l104 -118h23l-104 118h-23zM76 153l104 118h-22l-104 -118h22zM76 413l167 190
v26l-190 -216h23zM423 413h24l-192 217v-26zM250 224l67 -75l-67 -77l-67 77zM317 407l-67 -78l-67 78l67 75zM250 -36l161 183l-114 130l115 129l-162 184l-162 -184l115 -129l-115 -130zM468 147l-218 -248l-219 248l114 130l-116 129l221 250l220 -250l-116 -129z" />
    <glyph glyph-name="nine" unicode="9" horiz-adv-x="520" 
d="M259 267v25l-31 35h-23zM271 267l54 62h-22l-32 -36v-26zM290 334l-25 28l-26 -28l26 -29zM196 182h-23l-94 -106h23zM453 343h23l-205 233v-26zM75 341l184 209v26l-207 -235h23zM265 241l-83 93l83 95l83 -95zM162 17l280 319l-177 201l-177 -201l130 -148l-104 -118z
M160 188l-129 148l234 266l234 -266l-337 -383l-106 117z" />
    <glyph glyph-name="colon" unicode=":" horiz-adv-x="264" 
d="M73 67q0 27 17.5 46.5t40.5 19.5q21 0 36 -15l12 11q-21 21 -48 21q-31 0 -53.5 -24.5t-22.5 -58.5q0 -31 20 -57l12 13q-14 20 -14 44zM73 283q0 27 17.5 46.5t40.5 19.5q22 0 37 -16l12 12q-20 21 -49 21q-31 0 -53.5 -24.5t-22.5 -58.5q0 -32 18 -54l13 12
q-13 16 -13 42zM86 283q0 -22 13.5 -37.5t31.5 -15.5q19 0 31.5 15.5t12.5 37.5t-12.5 37.5t-31.5 15.5q-18 0 -31.5 -15.5t-13.5 -37.5zM86 67q0 -23 13.5 -38t31.5 -15q19 0 31.5 15t12.5 38q0 21 -12.5 37t-31.5 16q-18 0 -31.5 -16t-13.5 -37zM42 67q0 19 7 36.5
t19.5 30.5t28.5 21t34 8t34 -8t28 -21t18.5 -30.5t6.5 -36.5q0 -42 -25 -69t-62 -27q-18 0 -34 7.5t-28.5 20t-19.5 30t-7 38.5zM42 283q0 20 7 37.5t19.5 30.5t28.5 20.5t34 7.5q37 0 62 -28t25 -68q0 -20 -6.5 -37.5t-18.5 -30.5t-28 -21t-34 -8t-34 8t-28.5 21
t-19.5 30.5t-7 37.5z" />
    <glyph glyph-name="semicolon" unicode=";" horiz-adv-x="247" 
d="M162 122l17 18h-103l18 -18h68zM87 -39v151l-18 17v-211zM75 283q0 27 17 46.5t41 19.5q19 0 36 -15l12 12q-20 20 -48 20q-32 0 -54 -24.5t-22 -58.5q0 -33 18 -55l13 12q-13 16 -13 43zM156 43v66h-56v-128zM88 283q0 -22 13 -37.5t32 -15.5t31.5 15.5t12.5 37.5
t-12.5 37.5t-31.5 15.5t-32 -15.5t-13 -37.5zM44 283q0 40 25 68t64 28q18 0 34 -7.5t27.5 -20.5t18.5 -30.5t7 -37.5t-7 -37.5t-18.5 -30.5t-27.5 -21t-34 -8q-19 0 -35 8t-28 21t-19 30.5t-7 37.5zM199 29l-143 -162v286h143v-124z" />
    <glyph glyph-name="less" unicode="&#x3c;" horiz-adv-x="392" 
d="M309 365h21l-74 88v-26zM311 79h23l-118 133h-23zM63 223l181 204v26l-203 -230h22zM251 19l48 55l-128 144l125 142l-46 54l-174 -196zM356 74l-105 -119l-232 263l231 262l102 -121l-124 -141z" />
    <glyph glyph-name="equal" unicode="=" horiz-adv-x="395" 
d="M84 115v52l-17 18v-87zM84 265v53l-17 18v-88zM305 326l18 17h-247l18 -17h211zM307 177l17 17h-249l17 -17h215zM302 270v43h-205v-43h205zM302 121v43h-205v-43h205zM345 207v-130h-291v130h291zM345 356v-130h-291v130h291z" />
    <glyph glyph-name="greater" unicode="&#x3e;" horiz-adv-x="392" 
d="M81 367l53 60v26l-76 -86h23zM84 81l113 129h-24l-112 -129h23zM328 223h22l-204 230v-26zM142 19l174 198l-176 197l-48 -53l127 -145l-124 -143zM36 361l104 119l233 -263l-231 -262l-104 120l123 141z" />
    <glyph glyph-name="question" unicode="?" horiz-adv-x="532" 
d="M73 548l-18 17v-122l18 17v88zM464 474h22l-81 94l-8 -18zM143 67q0 27 16.5 46.5t41.5 19.5q19 0 36 -15l11 11q-14 13 -30 18h-36q-25 -7 -40.5 -29.5t-15.5 -50.5q0 -31 16 -53l12 12q-11 17 -11 41zM143 245l174 197l-40 -18l-157 -179h23zM388 557l7 17h-331l18 -17
h306zM156 67q0 -23 10 -38t35 -15q17 0 30.5 15t13.5 38q0 21 -13.5 37t-30.5 16q-20 0 -32.5 -16t-12.5 -37zM201 183l251 285l-66 76h-300v-78h269l-202 -228zM42 422v165h364l103 -119l-276 -313q25 -11 40.5 -35.5t15.5 -52.5q0 -21 -7 -38.5t-19 -30t-28 -20t-34 -7.5
q-39 0 -63.5 27t-24.5 69q0 30 14.5 54t39.5 35l-71 82l163 184h-217z" />
    <glyph glyph-name="at" unicode="@" horiz-adv-x="460" 
d="M309 337v-105q0 -35 32 -35q19 0 34.5 21.5t15.5 61.5q0 39 -8.5 72t-28 57t-50 37.5t-74.5 13.5q-35 0 -65 -12t-52 -36t-34.5 -59.5t-12.5 -81.5q0 -95 40 -143t106 -60l-5 -47q-48 7 -83.5 29t-59 55t-35.5 75.5t-12 90.5q0 55 17.5 99t47 74t68 46t80.5 16
q100 0 154.5 -53.5t54.5 -168.5q0 -16 -3.5 -38t-14 -42t-30 -34t-51.5 -14q-48 0 -63 36q-25 -19 -55 -19q-31 0 -55 20.5t-24 62.5q0 40 21 61.5t57 21.5q29 0 49 -14l4 12h35zM270 283q-16 16 -41 16q-47 0 -47 -43t44 -43q27 0 44 20v50z" />
    <glyph glyph-name="A" unicode="A" 
d="M279 9v26l-85 96l-24 2zM291 -4l5 4l1 -2l13 12v275l-17 -44v-222l-2 2v-25zM280 225l-75 -85l75 -87v172zM40 146l350 398l18 45l-391 -443h23zM389 13v509l-337 -382l179 -202l46 53l-130 149l176 201v-328h66zM316 -30l-85 -97l-236 267l438 497v-667h-117z" />
    <glyph glyph-name="B" unicode="B" horiz-adv-x="419" 
d="M192 134h10l-10 11v-11zM192 409l10 12h-10v-12zM255 104l-38 17h-25l-19 -17h82zM257 437l-35 -13l-32 -37l-17 -45zM343 164l15 5l-89 102h-23l99 -113zM79 555h257l18 17h-292zM70 6v540l-17 18v-573zM297 91h-148v169zM149 295v169h148zM332 13v140l-108 124l108 123
v142h-249v-529h249zM375 385l-95 -108l95 -109v-198h-335v615h335v-200z" />
    <glyph glyph-name="C" unicode="C" horiz-adv-x="461" 
d="M395 475h23l-76 87v-26zM396 -36h23l-220 248h-22zM330 536v26l-306 -338h23zM337 -96l47 54l-231 260l230 251l-47 54l-276 -305zM211 218l230 -260l-104 -119l-334 379l334 371l103 -120z" />
    <glyph glyph-name="D" unicode="D" horiz-adv-x="501" 
d="M159 557l12 14l-6 3h-94l17 -17h71zM193 572l52 58v26l-68 -76zM183 264l129 148h-22l-91 -104zM257 632l183 -209h23l-206 235v-26zM202 331l75 86l-75 83v-169zM80 23v525l-18 17v-592zM159 544h-66v-510l335 383l-177 201l-47 -54l131 -147l-176 -201v328zM166 587
l85 96l235 -266l-437 -498v668h117z" />
    <glyph glyph-name="E" unicode="E" horiz-adv-x="438" 
d="M345 104l17 17h-165l-18 -17h166zM336 329l39 18h-182l-17 -18h160zM346 555l17 17h-293l18 -17h258zM79 7v539l-17 18v-574zM341 464v78h-249v-529h249v78h-183v147h100l67 78h-167v148h183zM384 421h-183v-61h220l-144 -165h-76v-61h183v-164h-335v615h335v-164z" />
    <glyph glyph-name="F" unicode="F" horiz-adv-x="433" 
d="M187 329h156l40 18h-178zM350 555l18 17h-291l18 -17h255zM84 9v539l-17 17v-574zM346 464v78h-249v-529h66v225h100l67 78h-167v148h183zM389 421h-183v-61h220l-143 -165h-77v-225h-152v615h335v-164z" />
    <glyph glyph-name="G" unicode="G" horiz-adv-x="453" 
d="M251 346l-28 -31l28 -31v62zM190 307l76 -87l-15 42l-39 45h-22zM290 370h71l17 18h-106zM305 583l51 -58h23l-74 84v-26zM281 217v145l-17 17v-110zM293 613l-257 -294h22l235 268v26zM344 518l-47 54l-225 -257l287 -327v369h-66v-186l-127 144zM298 401h104v-528
l-387 442l282 323l104 -120z" />
    <glyph glyph-name="H" unicode="H" horiz-adv-x="485" 
d="M284 194h-92v-224h-153v615h153v-226h92v226h151v-595l-151 -175v379zM327 -69l65 73v538h-65v-226h-179v226h-66v-529h66v225h179v-307zM69 8v539l-17 17v-574zM314 216l-17 -17v-327l17 42v302zM314 546l-17 18v-211l17 -17v210zM303 329l-17 17h-98l-17 -17h132z
M401 555l17 17h-115l20 -17h78zM153 555l17 17h-108l17 -17h74z" />
    <glyph glyph-name="I" unicode="I" horiz-adv-x="246" 
d="M168 555l18 17h-111l18 -17h75zM84 16v530l-17 18v-589zM163 108v434h-66v-508zM206 92l-152 -171v664h152v-493z" />
    <glyph glyph-name="J" unicode="J" horiz-adv-x="362" 
d="M283 555l17 17h-111l17 -17h77zM44 -72l76 -86v26l-53 60h-23zM192 87l-16 6l-134 -153h23zM198 99v447l-18 18v-458zM126 -119l151 171v490h-66v-454l-133 -153zM167 102v483h153v-548l-194 -222l-105 120z" />
    <glyph glyph-name="K" unicode="K" horiz-adv-x="472" 
d="M167 557l18 17h-110l18 -17h74zM396 367h23l-75 86v-26zM399 81h22l-118 132h-22zM332 427v26l-126 -143l-20 -47zM67 565v-587l17 45v525zM338 414l-175 -197v327h-66v-510l116 130l127 -145l48 55l-129 144l125 143zM445 74l-105 -120l-127 145l-159 -178v666h152v-258
l132 151l103 -119l-125 -143z" />
    <glyph glyph-name="L" unicode="L" horiz-adv-x="427" 
d="M186 104h85l11 17h-78zM95 543l75 -85l16 4l-108 126zM84 539l-17 45v-591l17 17v529zM342 13l-69 78h-110v356l-66 74v-508h245zM206 462v-328h87l146 -164h-385v666z" />
    <glyph glyph-name="M" unicode="M" horiz-adv-x="605" 
d="M438 555h106l40 17h-152zM188 572h-158l39 -17h110zM313 421l113 129l-6 22l-107 -125v-26zM189 549l112 -128v26l-103 118zM431 -87v475l-17 -48v-471zM91 9v494l-17 -5v-507zM308 286l136 156v-511l66 73v512l22 26h-96l-129 -147l-129 147h-96l22 -26v-503h66v427z
M401 327l-93 -105l-95 106v-358h-152v530l-72 85h209l109 -125l110 125h211l-75 -86v-510l-152 -171v509z" />
    <glyph glyph-name="N" unicode="N" horiz-adv-x="567" 
d="M408 555h72l18 17h-107zM398 209v339l-17 17v-309zM386 205l-18 46l-299 340l16 -44zM77 8v527l-17 46v-591zM437 19l39 47v476h-65v-385l-321 365v-509h66v328zM368 271v314h151v-534l-83 -95l-237 269v-255h-152v667z" />
    <glyph glyph-name="O" unicode="O" horiz-adv-x="692" 
d="M342 121q-40 0 -73.5 17t-55.5 47l-15 -9q21 -33 61 -53t83 -20q38 0 70.5 13.5t56.5 37.5t37.5 55.5t13.5 67.5q0 51 -28 91l-13 -7q24 -38 24 -84q0 -33 -12.5 -61.5t-34 -49.5t-51 -33t-63.5 -12zM62 277q0 57 22.5 108t61 88.5t90 59.5t110.5 22q72 0 132.5 -31.5
t98.5 -85.5l15 9q-42 57 -106 91t-140 34q-62 0 -117 -23.5t-96 -63.5t-65 -93.5t-24 -114.5q0 -91 49 -161l15 9q-46 67 -46 152zM196 277q0 -30 11.5 -56t31 -45.5t46 -30.5t57.5 -11t58 11t47 30.5t31.5 45.5t11.5 56t-11.5 56t-31.5 45.5t-47 31t-58 11.5t-57.5 -11.5
t-46 -31t-31 -45.5t-11.5 -56zM153 277q0 39 15 73t40.5 59.5t60 40t73.5 14.5q40 0 75 -14.5t61 -40t40.5 -59.5t14.5 -73t-14.5 -73t-40.5 -59.5t-61 -40t-75 -14.5q-39 0 -73.5 14.5t-60 40t-40.5 59.5t-15 73zM571 425q-37 54 -96 85.5t-129 31.5q-56 0 -105.5 -21
t-86 -57t-58 -84.5t-21.5 -102.5q0 -55 21.5 -103.5t58 -84.5t86 -57t105.5 -21q55 0 104.5 21t86.5 57t58.5 84.5t21.5 103.5q0 40 -11.5 77t-33.5 68zM31 277q0 64 25 120t67.5 98t100 66t122.5 24q64 0 121.5 -24t100.5 -66t68 -98t25 -120t-25 -120t-68 -98
t-100.5 -66.5t-121.5 -24.5q-65 0 -122.5 24.5t-100 66.5t-67.5 98t-25 120z" />
    <glyph glyph-name="P" unicode="P" horiz-adv-x="416" 
d="M206 409l10 12h-10v-12zM186 342l84 94l-35 -14l-30 -34zM350 555l18 17h-290l17 -17h255zM84 9v540l-17 17v-575zM163 295v169h148zM346 400v142h-249v-529h66v179zM389 385l-183 -210v-205h-152v615h335v-200z" />
    <glyph glyph-name="Q" unicode="Q" horiz-adv-x="662" 
d="M552 96l137 -154h24l-137 154h-24zM451 400q-5 4 -9.5 8t-9.5 8l-12 -12q30 -22 48 -55t18 -72q0 -33 -12.5 -61.5t-34.5 -49.5t-51 -33t-63 -12q-40 0 -73 16.5t-54 45.5l-17 -9l18 -21q25 -23 57.5 -36.5t68.5 -13.5q37 0 69.5 13.5t56.5 37.5t38 55.5t14 67.5
t-14 67.5t-38 55.5zM44 277q0 57 22.5 108t61 88.5t90.5 59.5t111 22q42 0 81 -11t71 -33l12 12q-36 23 -77 36t-87 13q-62 0 -117 -23.5t-96 -63.5t-65 -93.5t-24 -114.5q0 -45 13 -86.5t37 -76.5l15 8q-48 70 -48 155zM179 277q0 -30 11.5 -56t31 -45.5t46 -30.5t57.5 -11
t58 11t47 30.5t31.5 45.5t11.5 56t-11.5 56t-31.5 45.5t-47 31t-58 11.5t-57.5 -11.5t-46 -31t-31 -45.5t-11.5 -56zM135 277q0 39 15 73t41 59.5t60.5 40t73.5 14.5q40 0 74.5 -14.5t60.5 -40t41 -59.5t15 -73t-15 -73t-41 -59.5t-60.5 -40t-74.5 -14.5q-39 0 -73.5 14.5
t-60.5 40t-41 59.5t-15 73zM57 277q0 -55 21.5 -103.5t58.5 -84.5t86.5 -57t105.5 -21q40 0 75 10.5t73 33.5l152 -172l48 53l-145 165q37 50 52.5 90.5t15.5 85.5q0 54 -21.5 102.5t-58.5 84.5t-86.5 57t-104.5 21q-56 0 -105.5 -21t-86.5 -57t-58.5 -84.5t-21.5 -102.5z
M14 277q0 64 24.5 120t67.5 98t100.5 66t122.5 24t122 -24t100 -66t67.5 -98t24.5 -120q0 -48 -15.5 -95.5t-39.5 -79.5l147 -166l-106 -118l-163 182l-16 -8q-26 -14 -54 -19t-58 -5q-67 0 -126 23.5t-103 64.5t-69.5 98t-25.5 123z" />
    <glyph glyph-name="R" unicode="R" horiz-adv-x="458" 
d="M206 330l26 31l-26 29v-60zM222 573l-23 -24l-23 -53l46 53v24zM167 557l18 17h-108l17 -16l-1 -1h74zM189 265l80 91h-24l-39 -45zM279 215l122 -137h22l-121 137h-23zM234 551l162 -184h23l-185 210v-26zM84 17v533l-17 17v-595zM97 544v-510l116 130l127 -145l48 55
l-129 144l125 143l-155 176l-47 -54l108 -122l-127 -144v327h-66zM445 74l-105 -120l-127 145l-159 -178v666h152v-10l23 26l212 -242l-125 -143z" />
    <glyph glyph-name="S" unicode="S" horiz-adv-x="466" 
d="M287 143h-23l-18 -20v-27zM141 186v26l-74 -86h22zM234 101v26l-81 91v-26zM378 457h23l-153 172v-26zM67 412l169 191v26l-193 -217h24zM414 153h23l-218 248h-22zM150 176l-48 -55l140 -157l161 183l-228 260l67 75l78 -87l48 54l-126 141l-163 -184l230 -258l-67 -75z
M242 137l9 10l-230 259l221 249l184 -206l-106 -119l-78 87l-10 -10l228 -260l-218 -248l-196 222l104 121z" />
    <glyph glyph-name="T" unicode="T" horiz-adv-x="442" 
d="M171 550l-9 16l-109 -123l38 17zM356 555l18 17h-202l9 -17h175zM273 442l-17 -17v-452l17 43v426zM351 108v434h-171l-68 -78h174v-430zM243 -81v502h-227l145 164h234v-492z" />
    <glyph glyph-name="U" unicode="U" horiz-adv-x="498" 
d="M272 104l-8 17h-28l-9 -17h45zM320 152l-17 7l-29 -33l9 -17zM217 108l8 16l-31 34l-17 -6zM165 555l17 17h-107l17 -17h73zM409 555l18 17h-111l17 -17h76zM325 164v381l-17 18v-393zM81 109v440l-18 17v-461zM160 542h-66v-434l84 -95h141l84 95v434h-65v-389l-54 -62
h-69l-55 61v390zM50 94v491h153v-418l29 -33h32l31 34v417h152v-491l-108 -124h-180z" />
    <glyph glyph-name="V" unicode="V" horiz-adv-x="545" 
d="M166 557l17 17h-106l16 -17h73zM452 549l52 -58h23l-75 84v-26zM185 261l255 290v26l-235 -267zM84 16v531l-17 20v-595zM492 484l-47 53l-282 -321v328h-66v-510zM54 587h152v-257l239 272l106 -118l-497 -565v668z" />
    <glyph glyph-name="W" unicode="W" horiz-adv-x="782" 
d="M164 557l17 17h-106l18 -17h71zM718 550l53 -60h23l-76 86v-26zM351 15v269l-17 -41v-272zM455 264l251 286v26l-231 -263zM431 544l19 46l-245 -279l-19 -47zM82 12v538l-17 17v-596zM760 484l-48 53l-282 -321v306l-269 -306v328h-66v-510l269 304v-304zM321 224
l-269 -304v667h153v-257l268 307v-307l239 272l106 -118l-497 -565v305z" />
    <glyph glyph-name="X" unicode="X" horiz-adv-x="667" 
d="M153 549v26l-72 -84h22zM580 491h23l-78 86v-26zM347 359l166 189v26l-166 -189v-26zM581 78h22l-169 193h-23zM335 359v26l-169 192v-26zM271 273h-23l-291 -332h22zM521 18l48 55l-181 205l181 206l-48 53l-180 -204l-181 204l-46 -54l180 -205l-303 -343l48 -54
l302 344zM341 397l180 205l106 -118l-182 -206l181 -205l-105 -120l-180 206l-302 -344l-105 120l302 343l-180 205l104 120z" />
    <glyph glyph-name="Y" unicode="Y" horiz-adv-x="508" 
d="M444 550l52 -59h22l-74 85v-26zM19 491l52 59v26l-74 -85h22zM264 359l168 191v26l-168 -191v-26zM251 359v26l-168 191v-26zM212 13v236l-18 -4v-274zM29 483l196 -222v-227l65 74v153l195 223l-47 53l-180 -204l-181 204zM181 245l-209 238l105 120l181 -206l180 206
l104 -119l-209 -239v-152l-152 -174v326z" />
    <glyph glyph-name="Z" unicode="Z" horiz-adv-x="624" 
d="M144 462v85l-17 17v-119zM535 474h23l-82 94l-9 -17zM512 104l17 17h-260l-40 -17h283zM457 557l9 17h-332l18 -17h305zM388 442l-38 -17l-288 -327h22zM164 13h343v78h-316l332 377l-66 76h-300v-78h269l-330 -374zM551 134v-164h-406l-106 122l291 330h-216v165h363
l103 -119l-294 -334h265z" />
    <glyph glyph-name="underscore" unicode="_" horiz-adv-x="382" 
d="M0 -11h382v-95h-382v95z" />
    <glyph glyph-name="grave" unicode="`" horiz-adv-x="251" 
d="M95 803v26l-48 -54h23zM180 717h24l-96 108v-26zM151 691l17 20l-68 77l-18 -19zM151 627l-127 142l76 84l126 -142z" />
    <glyph glyph-name="a" unicode="a" 
d="M279 9v26l-85 96l-24 2zM291 -4l5 4l1 -2l13 12v275l-17 -44v-222l-2 2v-25zM280 225l-75 -85l75 -87v172zM40 146l350 398l18 45l-391 -443h23zM389 13v509l-337 -382l179 -202l46 53l-130 149l176 201v-328h66zM316 -30l-85 -97l-236 267l438 497v-667h-117z" />
    <glyph glyph-name="b" unicode="b" horiz-adv-x="419" 
d="M192 134h10l-10 11v-11zM192 409l10 12h-10v-12zM255 104l-38 17h-25l-19 -17h82zM257 437l-35 -13l-32 -37l-17 -45zM343 164l15 5l-89 102h-23l99 -113zM79 555h257l18 17h-292zM70 6v540l-17 18v-573zM297 91h-148v169zM149 295v169h148zM332 13v140l-108 124l108 123
v142h-249v-529h249zM375 385l-95 -108l95 -109v-198h-335v615h335v-200z" />
    <glyph glyph-name="c" unicode="c" horiz-adv-x="461" 
d="M395 475h23l-76 87v-26zM396 -36h23l-220 248h-22zM330 536v26l-306 -338h23zM337 -96l47 54l-231 260l230 251l-47 54l-276 -305zM211 218l230 -260l-104 -119l-334 379l334 371l103 -120z" />
    <glyph glyph-name="d" unicode="d" horiz-adv-x="501" 
d="M159 557l12 14l-6 3h-94l17 -17h71zM193 572l52 58v26l-68 -76zM183 264l129 148h-22l-91 -104zM257 632l183 -209h23l-206 235v-26zM202 331l75 86l-75 83v-169zM80 23v525l-18 17v-592zM159 544h-66v-510l335 383l-177 201l-47 -54l131 -147l-176 -201v328zM166 587
l85 96l235 -266l-437 -498v668h117z" />
    <glyph glyph-name="e" unicode="e" horiz-adv-x="438" 
d="M345 104l17 17h-165l-18 -17h166zM336 329l39 18h-182l-17 -18h160zM346 555l17 17h-293l18 -17h258zM79 7v539l-17 18v-574zM341 464v78h-249v-529h249v78h-183v147h100l67 78h-167v148h183zM384 421h-183v-61h220l-144 -165h-76v-61h183v-164h-335v615h335v-164z" />
    <glyph glyph-name="f" unicode="f" horiz-adv-x="433" 
d="M187 329h156l40 18h-178zM350 555l18 17h-291l18 -17h255zM84 9v539l-17 17v-574zM346 464v78h-249v-529h66v225h100l67 78h-167v148h183zM389 421h-183v-61h220l-143 -165h-77v-225h-152v615h335v-164z" />
    <glyph glyph-name="g" unicode="g" horiz-adv-x="453" 
d="M251 346l-28 -31l28 -31v62zM190 307l76 -87l-15 42l-39 45h-22zM290 370h71l17 18h-106zM305 583l51 -58h23l-74 84v-26zM281 217v145l-17 17v-110zM293 613l-257 -294h22l235 268v26zM344 518l-47 54l-225 -257l287 -327v369h-66v-186l-127 144zM298 401h104v-528
l-387 442l282 323l104 -120z" />
    <glyph glyph-name="h" unicode="h" horiz-adv-x="485" 
d="M284 194h-92v-224h-153v615h153v-226h92v226h151v-595l-151 -175v379zM327 -69l65 73v538h-65v-226h-179v226h-66v-529h66v225h179v-307zM69 8v539l-17 17v-574zM314 216l-17 -17v-327l17 42v302zM314 546l-17 18v-211l17 -17v210zM303 329l-17 17h-98l-17 -17h132z
M401 555l17 17h-115l20 -17h78zM153 555l17 17h-108l17 -17h74z" />
    <glyph glyph-name="i" unicode="i" horiz-adv-x="246" 
d="M168 555l18 17h-111l18 -17h75zM84 16v530l-17 18v-589zM163 108v434h-66v-508zM206 92l-152 -171v664h152v-493z" />
    <glyph glyph-name="j" unicode="j" horiz-adv-x="362" 
d="M283 555l17 17h-111l17 -17h77zM44 -72l76 -86v26l-53 60h-23zM192 87l-16 6l-134 -153h23zM198 99v447l-18 18v-458zM126 -119l151 171v490h-66v-454l-133 -153zM167 102v483h153v-548l-194 -222l-105 120z" />
    <glyph glyph-name="k" unicode="k" horiz-adv-x="472" 
d="M167 557l18 17h-110l18 -17h74zM396 367h23l-75 86v-26zM399 81h22l-118 132h-22zM332 427v26l-126 -143l-20 -47zM67 565v-587l17 45v525zM338 414l-175 -197v327h-66v-510l116 130l127 -145l48 55l-129 144l125 143zM445 74l-105 -120l-127 145l-159 -178v666h152v-258
l132 151l103 -119l-125 -143z" />
    <glyph glyph-name="l" unicode="l" horiz-adv-x="427" 
d="M186 104h85l11 17h-78zM95 543l75 -85l16 4l-108 126zM84 539l-17 45v-591l17 17v529zM342 13l-69 78h-110v356l-66 74v-508h245zM206 462v-328h87l146 -164h-385v666z" />
    <glyph glyph-name="m" unicode="m" horiz-adv-x="605" 
d="M438 555h106l40 17h-152zM188 572h-158l39 -17h110zM313 421l113 129l-6 22l-107 -125v-26zM189 549l112 -128v26l-103 118zM431 -87v475l-17 -48v-471zM91 9v494l-17 -5v-507zM308 286l136 156v-511l66 73v512l22 26h-96l-129 -147l-129 147h-96l22 -26v-503h66v427z
M401 327l-93 -105l-95 106v-358h-152v530l-72 85h209l109 -125l110 125h211l-75 -86v-510l-152 -171v509z" />
    <glyph glyph-name="n" unicode="n" horiz-adv-x="567" 
d="M408 555h72l18 17h-107zM398 209v339l-17 17v-309zM386 205l-18 46l-299 340l16 -44zM77 8v527l-17 46v-591zM437 19l39 47v476h-65v-385l-321 365v-509h66v328zM368 271v314h151v-534l-83 -95l-237 269v-255h-152v667z" />
    <glyph glyph-name="o" unicode="o" horiz-adv-x="674" 
d="M387 141q1 0 2 1h-2v-1zM394 409l-7 3v-3h7zM286 409v3l-8 -3h8zM474 329l-3 7v-7h3zM471 216l5 12h-5v-12zM245 388q-5 -4 -9 -7.5t-9 -7.5h18v15zM446 373q-5 4 -9 8t-9 8v-16h18zM190 270q0 -8 1 -15.5t2 -14.5h5v30h-8zM198 316h-3q-5 -22 -5 -34h8v34zM224 184
q9 -12 21 -19v19h-21zM298 138q13 -4 32 -4v8h-32v-4zM428 164q7 4 22 20h-22v-20zM342 134q20 0 41 6h-8v2h-33v-8zM375 409v6q-17 4 -33 6v-12h33zM330 421q-15 -1 -32 -6v-6h32v12zM479 240q2 7 3 14.5t2 15.5h-13v-30h8zM484 282q-2 18 -6 34h-7v-34h13zM286 397h-29
v-24h29v24zM416 397h-29v-24h29v24zM375 397h-33v-24h33v24zM330 397h-32v-24h32v24zM257 156l2 -2h27v30h-29v-28zM414 154q1 0 2 1v29h-29v-30h27zM416 240v30h-29v-30h29zM286 240v30h-29v-30h29zM459 240v30h-31v-30h31zM330 240v30h-32v-30h32zM375 154v30h-33v-30h33z
M375 240v30h-33v-30h33zM286 196v32h-29v-32h29zM416 361h-29v-32h29v32zM416 196v32h-29v-32h29zM330 154v30h-32v-30h32zM286 361h-29v-32h29v32zM459 357l-3 4h-28v-32h31v28zM459 196v32h-31v-32h31zM416 316h-29v-34h29v34zM245 240v30h-35v-30h35zM286 316h-29v-34h29
v34zM375 196v32h-33v-32h33zM330 361h-32v-32h32v32zM375 361h-33v-32h33v32zM330 196v32h-32v-32h32zM459 316h-31v-34h31v34zM245 361h-28q-6 -8 -7 -12v-20h35v32zM210 204l4 -8h31v32h-35v-24zM330 316h-32v-34h32v34zM375 316h-33v-34h33v34zM245 316h-35v-34h35v34z
M336 121q-40 0 -73.5 16.5t-55.5 46.5l-15 -8q21 -33 61 -53t83 -20q38 0 70.5 13.5t56.5 37.5t37.5 55.5t13.5 67.5q0 51 -28 91l-13 -7q24 -38 24 -84q0 -33 -12.5 -61.5t-34 -49.5t-51 -33t-63.5 -12zM55 277q0 57 22.5 108t61.5 88.5t90.5 59.5t110.5 22
q72 0 132.5 -31.5t98.5 -85.5l15 9q-42 57 -106 91t-140 34q-62 0 -117 -23.5t-96 -63.5t-65 -93.5t-24 -114.5q0 -91 49 -161l14 9q-22 31 -34 70.5t-12 81.5zM147 277q0 39 15 73t40.5 59.5t60 40t73.5 14.5q40 0 75 -14.5t61 -40t40.5 -59.5t14.5 -73t-14.5 -73
t-40.5 -59.5t-61 -40t-75 -14.5q-39 0 -73.5 14.5t-60 40t-40.5 59.5t-15 73zM564 425q-36 54 -95 85.5t-129 31.5q-56 0 -105 -21t-86.5 -57t-59 -84.5t-21.5 -102.5q0 -55 21.5 -103.5t59 -84.5t86.5 -57t105 -21q55 0 104.5 21t86.5 57t58.5 84.5t21.5 103.5
q0 40 -11.5 77t-33.5 68zM25 277q0 64 25 120t67.5 98t100 66t122.5 24q64 0 121.5 -24t100.5 -66t68 -98t25 -120t-25 -120t-68 -98t-100.5 -66.5t-121.5 -24.5q-65 0 -122.5 24.5t-100 66.5t-67.5 98t-25 120z" />
    <glyph glyph-name="p" unicode="p" horiz-adv-x="416" 
d="M206 409l10 12h-10v-12zM186 342l84 94l-35 -14l-30 -34zM350 555l18 17h-290l17 -17h255zM84 9v540l-17 17v-575zM163 295v169h148zM346 400v142h-249v-529h66v179zM389 385l-183 -210v-205h-152v615h335v-200z" />
    <glyph glyph-name="q" unicode="q" horiz-adv-x="665" 
d="M377 141q2 0 3 1h-3v-1zM384 409l-7 3v-3h7zM277 409v3l-8 -3h8zM465 329l-4 7v-7h4zM461 216l4 12h-4v-12zM235 388l-17 -15h17v15zM436 373l-17 15v-15h17zM180 270q0 -21 4 -30h4v30h-8zM188 316h-2q-6 -17 -6 -34h8v34zM214 184q8 -11 21 -19v19h-21zM289 138
q12 -4 32 -4v8h-32v-4zM419 164q6 4 11 9t10 11h-21v-20zM333 134q20 0 41 6h-9v2h-32v-8zM365 409v6q-17 5 -32 6v-12h32zM321 421q-17 -2 -32 -6v-6h32v12zM470 240q2 7 2.5 14.5t1.5 15.5h-13v-30h9zM474 282q-1 8 -2 17t-4 17h-7v-34h13zM277 397h-30v-24h30v24z
M407 397h-30v-24h30v24zM365 397h-32v-24h32v24zM321 397h-32v-24h32v24zM247 156q2 -2 3 -2h27v30h-30v-28zM405 154q1 0 2 1v29h-30v-30h28zM407 240v30h-30v-30h30zM277 240v30h-30v-30h30zM449 240v30h-30v-30h30zM321 240v30h-32v-30h32zM365 154v30h-32v-30h32z
M365 240v30h-32v-30h32zM277 196v32h-30v-32h30zM407 361h-30v-32h30v32zM407 196v32h-30v-32h30zM321 154v30h-32v-30h32zM277 361h-30v-32h30v32zM449 357q-2 2 -2 4h-28v-32h30v28zM449 196v32h-30v-32h30zM407 316h-30v-34h30v34zM235 240v30h-35v-30h35zM277 316h-30
v-34h30v34zM365 196v32h-32v-32h32zM321 361h-32v-32h32v32zM365 361h-32v-32h32v32zM321 196v32h-32v-32h32zM449 316h-30v-34h30v34zM235 361h-28l-7 -12v-20h35v32zM200 204q2 -6 5 -8h30v32h-35v-24zM321 316h-32v-34h32v34zM365 316h-32v-34h32v34zM235 316h-35v-34h35
v34zM555 96l137 -154h23l-137 154h-23zM453 400q-4 5 -9 8.5t-10 7.5l-12 -12q31 -22 48.5 -55t17.5 -72q0 -33 -12 -61.5t-33.5 -49.5t-51 -33t-63.5 -12q-40 0 -73 16.5t-55 45.5l-16 -9q23 -32 61 -51.5t83 -19.5q37 0 69.5 13.5t56.5 37.5t37.5 55.5t13.5 67.5
t-13.5 67.5t-38.5 55.5zM47 277q0 57 22.5 108t61 88.5t90 59.5t110.5 22q42 0 82 -11.5t71 -32.5l12 12q-36 23 -77.5 36t-87.5 13q-62 0 -116.5 -23.5t-96 -63.5t-65.5 -93.5t-24 -114.5q0 -45 13 -86.5t38 -76.5l15 8q-25 37 -36.5 73.5t-11.5 81.5zM138 277q0 39 15 73
t40.5 59.5t60 40t74.5 14.5t75 -14.5t60.5 -40t40 -59.5t14.5 -73t-14.5 -73t-40 -59.5t-60.5 -40t-75 -14.5t-74.5 14.5t-60 40t-40.5 59.5t-15 73zM60 277q0 -55 21.5 -103.5t58 -84.5t86 -57t105.5 -21q80 0 148 44l153 -172l48 53l-146 165q38 48 53.5 89.5t15.5 86.5
q0 54 -21.5 102.5t-58.5 84.5t-86.5 57t-105.5 21t-105.5 -21t-86 -57t-58 -84.5t-21.5 -102.5zM16 277q0 64 25 120t68 98t100 66t122 24t122.5 -24t100 -66t67.5 -98t25 -120q0 -49 -15.5 -95.5t-40.5 -79.5l148 -166l-106 -118l-163 182l-16 -8q-26 -14 -54.5 -19
t-58.5 -5q-66 0 -125 23.5t-103 64.5t-70 98t-26 123z" />
    <glyph glyph-name="r" unicode="r" horiz-adv-x="458" 
d="M206 330l26 31l-26 29v-60zM222 573l-23 -24l-23 -53l46 53v24zM167 557l18 17h-108l17 -16l-1 -1h74zM189 265l80 91h-24l-39 -45zM279 215l122 -137h22l-121 137h-23zM234 551l162 -184h23l-185 210v-26zM84 17v533l-17 17v-595zM97 544v-510l116 130l127 -145l48 55
l-129 144l125 143l-155 176l-47 -54l108 -122l-127 -144v327h-66zM445 74l-105 -120l-127 145l-159 -178v666h152v-10l23 26l212 -242l-125 -143z" />
    <glyph glyph-name="s" unicode="s" horiz-adv-x="466" 
d="M287 143h-23l-18 -20v-27zM141 186v26l-74 -86h22zM234 101v26l-81 91v-26zM378 457h23l-153 172v-26zM67 412l169 191v26l-193 -217h24zM414 153h23l-218 248h-22zM150 176l-48 -55l140 -157l161 183l-228 260l67 75l78 -87l48 54l-126 141l-163 -184l230 -258l-67 -75z
M242 137l9 10l-230 259l221 249l184 -206l-106 -119l-78 87l-10 -10l228 -260l-218 -248l-196 222l104 121z" />
    <glyph glyph-name="t" unicode="t" horiz-adv-x="442" 
d="M171 550l-9 16l-109 -123l38 17zM356 555l18 17h-202l9 -17h175zM273 442l-17 -17v-452l17 43v426zM351 108v434h-171l-68 -78h174v-430zM243 -81v502h-227l145 164h234v-492z" />
    <glyph glyph-name="u" unicode="u" horiz-adv-x="498" 
d="M272 104l-8 17h-28l-9 -17h45zM320 152l-17 7l-29 -33l9 -17zM217 108l8 16l-31 34l-17 -6zM165 555l17 17h-107l17 -17h73zM409 555l18 17h-111l17 -17h76zM325 164v381l-17 18v-393zM81 109v440l-18 17v-461zM160 542h-66v-434l84 -95h141l84 95v434h-65v-389l-54 -62
h-69l-55 61v390zM50 94v491h153v-418l29 -33h32l31 34v417h152v-491l-108 -124h-180z" />
    <glyph glyph-name="v" unicode="v" horiz-adv-x="545" 
d="M166 557l17 17h-106l16 -17h73zM452 549l52 -58h23l-75 84v-26zM185 261l255 290v26l-235 -267zM84 16v531l-17 20v-595zM492 484l-47 53l-282 -321v328h-66v-510zM54 587h152v-257l239 272l106 -118l-497 -565v668z" />
    <glyph glyph-name="w" unicode="w" horiz-adv-x="782" 
d="M164 557l17 17h-106l18 -17h71zM718 550l53 -60h23l-76 86v-26zM351 15v269l-17 -41v-272zM455 264l251 286v26l-231 -263zM431 544l19 46l-245 -279l-19 -47zM82 12v538l-17 17v-596zM760 484l-48 53l-282 -321v306l-269 -306v328h-66v-510l269 304v-304zM321 224
l-269 -304v667h153v-257l268 307v-307l239 272l106 -118l-497 -565v305z" />
    <glyph glyph-name="x" unicode="x" horiz-adv-x="667" 
d="M153 549v26l-72 -84h22zM580 491h23l-78 86v-26zM347 359l166 189v26l-166 -189v-26zM581 78h22l-169 193h-23zM335 359v26l-169 192v-26zM271 273h-23l-291 -332h22zM521 18l48 55l-181 205l181 206l-48 53l-180 -204l-181 204l-46 -54l180 -205l-303 -343l48 -54
l302 344zM341 397l180 205l106 -118l-182 -206l181 -205l-105 -120l-180 206l-302 -344l-105 120l302 343l-180 205l104 120z" />
    <glyph glyph-name="y" unicode="y" horiz-adv-x="508" 
d="M444 550l52 -59h22l-74 85v-26zM19 491l52 59v26l-74 -85h22zM264 359l168 191v26l-168 -191v-26zM251 359v26l-168 191v-26zM212 13v236l-18 -4v-274zM29 483l196 -222v-227l65 74v153l195 223l-47 53l-180 -204l-181 204zM181 245l-209 238l105 120l181 -206l180 206
l104 -119l-209 -239v-152l-152 -174v326z" />
    <glyph glyph-name="z" unicode="z" horiz-adv-x="624" 
d="M144 462v85l-17 17v-119zM535 474h23l-82 94l-9 -17zM512 104l17 17h-260l-40 -17h283zM457 557l9 17h-332l18 -17h305zM388 442l-38 -17l-288 -327h22zM164 13h343v78h-316l332 377l-66 76h-300v-78h269l-330 -374zM551 134v-164h-406l-106 122l291 330h-216v165h363
l103 -119l-294 -334h265z" />
    <glyph glyph-name="nonbreakingspace" unicode="&#xa0;" horiz-adv-x="270" 
 />
    <glyph glyph-name="exclamdown" unicode="&#xa1;" horiz-adv-x="246" 
d="M168 347l18 17h-111l18 -17h75zM71 481q0 27 17 46.5t41 19.5q21 0 34 -13l12 12q-21 18 -46 18q-31 0 -53 -24.5t-22 -58.5q0 -27 12 -46l12 12q-7 13 -7 34zM84 481q0 -22 13 -37.5t32 -15.5q18 0 31 15.5t13 37.5t-13 37.5t-31 15.5q-19 0 -32 -15.5t-13 -37.5z
M84 -88v426l-17 17v-484zM163 3v331h-66v-404zM41 481q0 20 7 37.5t19 30.5t28 20.5t34 7.5t34 -7.5t28 -20.5t19 -30.5t7 -37.5t-7 -37.5t-19 -30.5t-28 -20.5t-34 -7.5t-34 7.5t-28 20.5t-19 30.5t-7 37.5zM206 -12l-152 -171v560h152v-389z" />
    <glyph glyph-name="sterling" unicode="&#xa3;" horiz-adv-x="469" 
d="M91 361v224h255v-164h-103v-60h194v-165h-194v-61h194v-165h-421v165h75v61h-75v165h75zM200 92v146h194v80h-194v146h103v78h-169v-224h-75v-79h75v-147h-75v-79h335v79h-194zM121 546l-17 18v-216h-67l18 -17h66v215zM397 329l18 19h-185l-12 -19h179zM308 555l17 17
h-213l18 -17h178zM387 104l1 1h9l18 17h-179l-22 -18h173zM121 224l-17 -18v-84h-67l18 -17h66v119zM46 236v86l-17 17v-120zM46 10v86l-17 17v-120z" />
    <glyph glyph-name="dieresis" unicode="&#xa8;" horiz-adv-x="323" 
d="M238 726l17 20l-17 17l-18 -19zM82 726l17 20l-17 17l-18 -19zM267 752h23l-45 48v-26zM111 752h23l-45 48v-26zM233 778v26l-48 -54h23zM77 778v26l-48 -54h23zM238 662l-76 82l76 84l75 -82zM82 662l-76 82l76 84l75 -82z" />
    <glyph glyph-name="copyright" unicode="&#xa9;" horiz-adv-x="734" 
d="M412 323q-20 27 -51 27q-28 0 -45.5 -21t-17.5 -58q0 -36 18 -58t46 -22q14 0 26.5 6.5t23.5 16.5l41 -26q-32 -44 -92 -44q-24 0 -44.5 9.5t-35.5 26.5t-23.5 40.5t-8.5 50.5t7.5 50t22 40t35 27t47.5 10q65 0 94 -50zM36 273q0 67 25.5 126.5t70 104t103.5 70t126 25.5
t126 -25.5t103.5 -70t70.5 -104t26 -126.5t-26 -126t-70.5 -103.5t-103.5 -70t-126 -25.5t-126 25.5t-103.5 70t-70 103.5t-25.5 126zM74 272q0 -60 22.5 -112.5t61.5 -91.5t91.5 -61.5t111.5 -22.5q60 0 113 22.5t92.5 61.5t62.5 91.5t23 112.5q0 61 -23 114t-62.5 92.5
t-92.5 62t-113 22.5q-59 0 -111.5 -22.5t-91.5 -62t-61.5 -92.5t-22.5 -114z" />
    <glyph glyph-name="guillemotleft" unicode="&#xab;" horiz-adv-x="604" 
d="M252 407h21l-74 88v-26zM254 201h23l-78 93h-23zM46 305l141 164v26l-163 -190h22zM194 141l48 55l-88 104l85 102l-46 54l-134 -156zM299 196l-105 -119l-192 223l191 222l102 -121l-84 -101zM554 407h21l-74 88v-26zM556 201h23l-78 93h-23zM348 305l141 164v26
l-163 -190h22zM496 141l48 55l-88 104l85 102l-46 54l-134 -156zM601 196l-105 -119l-192 223l191 222l102 -121l-84 -101z" />
    <glyph glyph-name="registered" unicode="&#xae;" horiz-adv-x="468" 
d="M234 574q-36 0 -65 -13t-49.5 -34t-31.5 -47.5t-11 -53.5q0 -28 11 -54.5t31.5 -47.5t49.5 -34t65 -13q34 0 64.5 11.5t53.5 31.5t36 47t13 59q0 27 -12.5 53.5t-34.5 47.5t-52.5 34t-67.5 13zM235 243q-44 0 -79.5 15t-61 40.5t-39.5 58.5t-14 69q0 37 14 70.5
t39.5 58.5t61 40t79.5 15q42 0 78.5 -14.5t63 -39t41.5 -58t15 -72.5q0 -36 -15.5 -69t-42 -58.5t-62.5 -40.5t-78 -15zM213 482v-45h33q21 0 21 22q0 23 -21 23h-33zM234 397h-21v-73h-39v198h71q28 0 45 -16.5t17 -46.5q0 -20 -8 -32.5t-25 -23.5l36 -79h-42z" />
    <glyph glyph-name="degree" unicode="&#xb0;" horiz-adv-x="395" 
d="M210 434v-34h-26v34h26zM166 452v-70h61v70h-61zM153 369v96h87v-96h-87zM306 291v252h-218v-252h218zM319 278h-244v278h244v-278zM57 261h279v312h-279v-312zM349 248h-305v338h305v-338z" />
    <glyph glyph-name="acute" unicode="&#xb4;" horiz-adv-x="249" 
d="M180 774h23l-45 52v-26zM146 802v26l-100 -113h22zM167 769l-16 19l-69 -77l17 -20zM25 711l126 143l74 -85l-126 -143z" />
    <glyph glyph-name="cedilla" unicode="&#xb8;" horiz-adv-x="249" 
d="M180 -152h23l-45 52v-26zM146 -124v26l-100 -113h22zM167 -157l-16 19l-69 -77l17 -20zM25 -215l126 143l74 -85l-126 -143z" />
    <glyph glyph-name="guillemotright" unicode="&#xbb;" horiz-adv-x="604" 
d="M47 409l53 60v26l-76 -86h23zM50 203l73 89h-24l-72 -89h23zM254 305h22l-164 190v-26zM108 141l134 158l-136 157l-48 -53l87 -105l-84 -103zM2 403l104 119l193 -223l-191 -222l-104 120l83 101zM349 409l53 60v26l-76 -86h23zM352 203l73 89h-24l-72 -89h23zM556 305
h22l-164 190v-26zM410 141l134 158l-136 157l-48 -53l87 -105l-84 -103zM304 403l104 119l193 -223l-191 -222l-104 120l83 101z" />
    <glyph glyph-name="questiondown" unicode="&#xbf;" horiz-adv-x="532" 
d="M339 360l56 -59l26 -1l-84 85zM276 481q0 27 17 46.5t41 19.5q21 0 34 -13l12 12q-21 18 -46 18q-32 0 -54 -24.5t-22 -58.5q0 -27 13 -46l12 12q-7 13 -7 34zM453 78l21 21h-198l-58 -20zM289 481q0 -23 13 -38t32 -15q18 0 31 15t13 38q0 22 -13 37.5t-31 15.5
q-19 0 -32 -15.5t-13 -37.5zM322 385l-1 1l-273 -318l33 2l248 288zM338 350l-250 -285l65 -76h300v78h-268l201 228zM245 481q0 20 7 37.5t19.5 30.5t28.5 20.5t34 7.5t34 -7.5t27.5 -20.5t18.5 -30.5t7 -37.5q0 -18 -5.5 -34t-15 -29t-22 -21.5t-27.5 -10.5l92 -91
l-163 -184h217v-165h-363l-104 119l280 322q-26 6 -45.5 33t-19.5 61z" />
    <glyph glyph-name="Agrave" unicode="&#xc0;" 
d="M351 829l-48 -54h23l25 28v26zM460 717l-97 108v-26l73 -82h24zM279 35l-85 96l-24 2l109 -124v26zM424 711l-69 77l-17 -19l69 -78zM296 0l1 -2l13 12v275l-17 -44v-222l-2 2v-25zM205 140l75 -87v172zM390 544l18 45l-391 -443h23zM280 769l75 84l127 -142l-75 -84z
M389 522l-337 -382l179 -202l46 53l-130 149l176 201v-328h66v509zM312 -34l-81 -93l-236 267l438 497v-667h-117z" />
    <glyph glyph-name="Aacute" unicode="&#xc1;" 
d="M468 774l-45 52v-26l23 -26h22zM411 828l-100 -113h23l77 87v26zM279 35l-85 96l-24 2l109 -124v26zM416 788l-68 -77l16 -20l69 78zM296 0l1 -2l13 12v275l-17 -44v-222l-2 2v-25zM205 140l75 -87v172zM390 544l18 45l-391 -443h23zM416 854l74 -85l-126 -143l-74 85z
M389 522l-337 -382l179 -202l46 53l-130 149l176 201v-328h66v509zM312 -34l-81 -93l-236 267l438 497v-667h-117z" />
    <glyph glyph-name="Acircumflex" unicode="&#xc2;" 
d="M372 827l-96 -110h22l74 84v26zM459 717h23l-98 110v-26zM279 35l-85 96l-24 2l109 -124v26zM296 0l1 -2l13 12v275l-17 -44v-222l-2 2v-25zM447 712l-69 76l-68 -77l18 -20l50 59l50 -59zM205 140l75 -87v172zM390 544l18 45l-391 -443h23zM389 522l-337 -382l179 -202
l46 53l-130 149l176 201v-328h66v509zM312 -34l-81 -93l-236 267l431 489l-48 54l-50 -57l-75 85l125 142l127 -141l-72 -81v-661h-117z" />
    <glyph glyph-name="Atilde" unicode="&#xc3;" 
d="M492 774l-45 52v-26l22 -26h23zM381 786l-37 41v-26l37 -42v27zM393 760l41 42v26l-41 -47v-21zM332 827l-96 -110h22l74 84v26zM279 35l-85 96l-24 2l109 -124v26zM296 0l1 -2l13 12v275l-17 -44v-222l-2 2v-25zM205 140l75 -87v172zM338 788l-67 -77l17 -20l50 59
l50 -57l68 76l-16 19l-52 -53zM390 544l18 45l-391 -443h23zM288 626l-75 85l125 142l51 -56l51 57l73 -85l-125 -143l-50 57zM389 522l-337 -382l179 -202l46 53l-130 149l176 201v-328h66v509zM312 -34l-81 -93l-236 267l438 497v-667h-117z" />
    <glyph glyph-name="Adieresis" unicode="&#xc4;" 
d="M333 746l-17 17l-18 -19l18 -18zM489 746l-17 17l-18 -17l18 -20zM525 752l-46 48v-26l22 -22h24zM368 752l-45 48v-26l22 -22h23zM311 804l-48 -54h23l25 28v26zM467 804l-48 -54h23l25 28v26zM279 35l-85 96l-24 2l109 -124v26zM296 0l1 -2l13 12v275l-17 -44v-222
l-2 2v-25zM205 140l75 -87v172zM390 544l18 45l-391 -443h23zM240 744l76 84l74 -82l-74 -84zM396 744l76 84l75 -84l-75 -82zM389 522l-337 -382l179 -202l46 53l-130 149l176 201v-328h66v509zM312 -34l-81 -93l-236 267l438 497v-667h-117z" />
    <glyph glyph-name="Aring" unicode="&#xc5;" 
d="M354 736l-6 7h-17l23 -26v19zM385 743h-17l-6 -7v-19zM453 753h17l-105 120l-1 -16zM245 756l15 -6l95 112l-5 19zM279 35l-85 96l-24 2l109 -124v26zM315 747l43 51l43 -51l-43 -48zM296 0l1 -2l13 12v275l-17 -44v-222l-2 2v-25zM205 140l75 -87v172zM390 544l18 45
l-391 -443h23zM358 850l-87 -103l87 -102l88 102zM358 598l-135 149l132 153l131 -153zM389 522l-337 -382l179 -202l46 53l-130 149l176 201v-328h66v509zM312 -34l-81 -93l-236 267l438 497v-667h-117z" />
    <glyph glyph-name="AE" unicode="&#xc6;" horiz-adv-x="651" 
d="M279 9v26l-85 96l-24 2zM433 104h146l18 17h-164v-17zM433 329h137l39 18h-176v-18zM398 572l5 -17h177l17 17h-199zM296 0l1 -2l13 12v275l-14 -38v-247zM280 225l-75 -85l75 -87v172zM40 146l352 404l-5 15l-370 -419h23zM401 542l-349 -403l179 -201l46 53l-130 149
l179 202v-329h249v78h-186v147h103l67 78h-170v148h186v78h-174zM387 585h231v-164h-183v-61h220l-143 -165h-77v-61h183v-164h-302l-85 -97l-236 267z" />
    <glyph glyph-name="Ccedilla" unicode="&#xc7;" horiz-adv-x="461" 
d="M319 -152l-45 52v-26l23 -26h22zM418 475l-76 87v-26l53 -61h23zM262 -98l-100 -113h23l77 87v26zM267 -138l-68 -77l16 -20l69 78zM419 -36l-220 248h-22l219 -248h23zM330 562l-306 -338h23l283 312v26zM384 -42l-231 260l230 251l-47 54l-276 -305l277 -314zM263 -76
l-260 294l333 371l104 -120l-229 -251l230 -260l-226 -258l-74 85z" />
    <glyph glyph-name="Egrave" unicode="&#xc8;" horiz-adv-x="438" 
d="M192 829l-49 -54h23l26 28v26zM300 717l-96 108v-26l73 -82h23zM264 711l-68 77l-17 -19l68 -78zM362 121h-165l-18 -17h166zM375 347h-182l-17 -18h160zM363 572h-293l18 -17h258zM79 546l-17 18v-574l17 17v539zM121 769l75 84l127 -142l-76 -84zM341 542h-249v-529
h249v78h-183v147h100l67 78h-167v148h183v78zM201 421v-61h220l-144 -165h-76v-61h183v-164h-335v615h335v-164h-183z" />
    <glyph glyph-name="Eacute" unicode="&#xc9;" horiz-adv-x="438" 
d="M297 774l-45 52v-26l23 -26h22zM240 828l-100 -113h23l77 87v26zM245 788l-68 -77l16 -20l69 78zM362 121h-165l-18 -17h166zM375 347h-182l-17 -18h160zM363 572h-293l18 -17h258zM79 546l-17 18v-574l17 17v539zM245 854l74 -85l-126 -143l-73 85zM341 542h-249v-529
h249v78h-183v147h100l67 78h-167v148h183v78zM201 421v-61h220l-144 -165h-76v-61h183v-164h-335v615h335v-164h-183z" />
    <glyph glyph-name="Ecircumflex" unicode="&#xca;" horiz-adv-x="438" 
d="M210 827l-96 -110h22l74 84v26zM297 717h23l-98 110v-26zM362 121h-165l-18 -17h166zM375 347h-182l-17 -18h160zM284 712l-68 76l-68 -77l18 -20l50 59l50 -59zM363 572h-293l18 -17h258zM79 546l-17 18v-574l17 17v539zM216 683l-50 -57l-75 85l125 142l126 -141
l-76 -85zM341 542h-249v-529h249v78h-183v147h100l67 78h-167v148h183v78zM201 421v-61h220l-144 -165h-76v-61h183v-164h-335v615h335v-164h-183z" />
    <glyph glyph-name="Edieresis" unicode="&#xcb;" horiz-adv-x="438" 
d="M159 746l-18 17l-17 -19l17 -18zM315 746l-18 17l-17 -17l17 -20zM350 752l-45 48v-26l22 -22h23zM194 752l-45 48v-26l22 -22h23zM137 804l-49 -54h24l25 28v26zM293 804l-48 -54h23l25 28v26zM362 121h-165l-18 -17h166zM375 347h-182l-17 -18h160zM363 572h-293
l18 -17h258zM79 546l-17 18v-574l17 17v539zM66 744l75 84l76 -82l-76 -84zM222 744l75 84l76 -84l-76 -82zM341 542h-249v-529h249v78h-183v147h100l67 78h-167v148h183v78zM201 421v-61h220l-144 -165h-76v-61h183v-164h-335v615h335v-164h-183z" />
    <glyph glyph-name="Igrave" unicode="&#xcc;" horiz-adv-x="246" 
d="M95 829l-48 -54h23l25 28v26zM186 572h-111l20 -17h73zM204 717l-96 108v-26l72 -82h24zM168 711l-68 77l-18 -19l69 -78zM84 546l-17 18v-589l17 41v530zM24 769l76 84l126 -142l-75 -84zM163 542h-66v-508l66 74v434zM54 -79v664h152v-493z" />
    <glyph glyph-name="Iacute" unicode="&#xcd;" horiz-adv-x="246" 
d="M220 774l-45 52v-26l23 -26h22zM186 572h-111l18 -17h75zM163 828l-100 -113h23l77 87v26zM168 788l-68 -77l16 -20l69 78zM84 546l-17 18v-589l17 41v530zM168 854l74 -85l-126 -143l-74 85zM163 542h-66v-508l66 74v434zM54 -79v664h152v-493z" />
    <glyph glyph-name="Icircumflex" unicode="&#xce;" horiz-adv-x="246" 
d="M186 572h-111l18 -17h75zM122 827l-96 -110h23l73 84v26zM209 717h23l-98 110v-26zM197 712l-69 76l-67 -77l17 -20l50 59l51 -59zM84 546l-17 18v-589l17 41v530zM128 683l-50 -57l-75 85l125 142l127 -141l-76 -85zM163 542h-66v-508l66 74v434zM54 -79v664h152v-493z
" />
    <glyph glyph-name="Idieresis" unicode="&#xcf;" horiz-adv-x="246" 
d="M65 746l-17 17l-18 -19l18 -18zM221 746l-17 17l-18 -17l18 -20zM257 752l-45 48v-26l21 -22h24zM101 752l-46 48v-26l22 -22h24zM43 804l-48 -54h23l25 28v26zM199 804l-48 -54h23l25 28v26zM186 572h-111l18 -17h75zM84 546l-17 18v-589l17 41v530zM-28 744l76 84
l75 -82l-75 -84zM128 744l76 84l75 -84l-75 -82zM163 542h-66v-508l66 74v434zM54 -79v664h152v-493z" />
    <glyph glyph-name="Eth" unicode="&#xd0;" horiz-adv-x="531" 
d="M40 383h58l-13 15h-60zM12 277l15 17v82l-15 15v-114zM189 557l12 14l-6 3h-94l17 -17h71zM223 572l52 58v26l-68 -76zM92 408l18 -19v159l-18 17v-157zM213 264l129 148l-22 -4l-91 -100zM110 23v251l-18 -13v-288zM287 632l183 -209h23l-206 235v-26zM232 331l75 86
l-75 83v-169zM123 34l335 383l-177 201l-47 -54l131 -147l-176 -201v328h-66v-173h-84v-75h84v-262zM0 410h79v177h117l85 96l235 -266l-437 -498v339h-79v152z" />
    <glyph glyph-name="Ntilde" unicode="&#xd1;" horiz-adv-x="567" 
d="M403 774l-45 52v-26l23 -26h22zM292 786l-36 41v-26l36 -42v27zM304 760l42 42v26l-42 -47v-21zM480 555l18 17h-107l17 -17h72zM244 827l-97 -110h23l74 84v26zM398 548l-17 17v-309l17 -47v339zM250 788l-68 -77l17 -20l51 59l49 -57l69 76l-17 19l-51 -53zM368 251
l-299 340l16 -44l301 -342zM77 535l-17 46v-591l17 18v527zM199 626l-74 85l125 142l51 -56l50 57l74 -85l-126 -143l-49 57zM476 66v476h-65v-385l-321 365v-509h66v328l281 -322zM368 585h151v-534l-83 -95l-237 269v-255h-152v667l321 -366v314z" />
    <glyph glyph-name="Ograve" unicode="&#xd2;" horiz-adv-x="692" 
d="M305 829l-48 -54h23l25 28v26zM414 717l-97 108v-26l73 -82h24zM378 711l-68 77l-18 -19l69 -78zM342 121q-40 0 -73.5 17t-55.5 47l-15 -9q21 -33 61 -53t83 -20q38 0 70.5 13.5t56.5 37.5t37.5 55.5t13.5 67.5q0 51 -28 91l-13 -7q24 -38 24 -84q0 -33 -12.5 -61.5
t-34 -49.5t-51 -33t-63.5 -12zM62 277q0 57 22.5 108t61 88.5t90 59.5t110.5 22q72 0 132.5 -31.5t98.5 -85.5l15 9q-42 57 -106 91t-140 34q-62 0 -117 -23.5t-96 -63.5t-65 -93.5t-24 -114.5q0 -91 49 -161l15 9q-46 67 -46 152zM234 769l76 84l126 -142l-75 -84zM196 277
q0 -30 11.5 -56t31 -45.5t46 -30.5t57.5 -11t58 11t47 30.5t31.5 45.5t11.5 56t-11.5 56t-31.5 45.5t-47 31t-58 11.5t-57.5 -11.5t-46 -31t-31 -45.5t-11.5 -56zM153 277q0 39 15 73t40.5 59.5t60 40t73.5 14.5q40 0 75 -14.5t61 -40t40.5 -59.5t14.5 -73t-14.5 -73
t-40.5 -59.5t-61 -40t-75 -14.5q-39 0 -73.5 14.5t-60 40t-40.5 59.5t-15 73zM571 425q-37 54 -96 85.5t-129 31.5q-56 0 -105.5 -21t-86 -57t-58 -84.5t-21.5 -102.5q0 -55 21.5 -103.5t58 -84.5t86 -57t105.5 -21q55 0 104.5 21t86.5 57t58.5 84.5t21.5 103.5
q0 40 -11.5 77t-33.5 68zM31 277q0 64 25 120t67.5 98t100 66t122.5 24q64 0 121.5 -24t100.5 -66t68 -98t25 -120t-25 -120t-68 -98t-100.5 -66.5t-121.5 -24.5q-65 0 -122.5 24.5t-100 66.5t-67.5 98t-25 120z" />
    <glyph glyph-name="Oacute" unicode="&#xd3;" horiz-adv-x="692" 
d="M419 774l-45 52v-26l22 -26h23zM362 828l-100 -113h22l78 87v26zM367 788l-69 -77l17 -20l68 78zM342 121q-40 0 -73.5 17t-55.5 47l-15 -9q21 -33 61 -53t83 -20q38 0 70.5 13.5t56.5 37.5t37.5 55.5t13.5 67.5q0 51 -28 91l-13 -7q24 -38 24 -84q0 -33 -12.5 -61.5
t-34 -49.5t-51 -33t-63.5 -12zM62 277q0 57 22.5 108t61 88.5t90 59.5t110.5 22q72 0 132.5 -31.5t98.5 -85.5l15 9q-42 57 -106 91t-140 34q-62 0 -117 -23.5t-96 -63.5t-65 -93.5t-24 -114.5q0 -91 49 -161l15 9q-46 67 -46 152zM367 854l73 -85l-125 -143l-74 85z
M196 277q0 -30 11.5 -56t31 -45.5t46 -30.5t57.5 -11t58 11t47 30.5t31.5 45.5t11.5 56t-11.5 56t-31.5 45.5t-47 31t-58 11.5t-57.5 -11.5t-46 -31t-31 -45.5t-11.5 -56zM153 277q0 39 15 73t40.5 59.5t60 40t73.5 14.5q40 0 75 -14.5t61 -40t40.5 -59.5t14.5 -73
t-14.5 -73t-40.5 -59.5t-61 -40t-75 -14.5q-39 0 -73.5 14.5t-60 40t-40.5 59.5t-15 73zM571 425q-37 54 -96 85.5t-129 31.5q-56 0 -105.5 -21t-86 -57t-58 -84.5t-21.5 -102.5q0 -55 21.5 -103.5t58 -84.5t86 -57t105.5 -21q55 0 104.5 21t86.5 57t58.5 84.5t21.5 103.5
q0 40 -11.5 77t-33.5 68zM31 277q0 64 25 120t67.5 98t100 66t122.5 24q64 0 121.5 -24t100.5 -66t68 -98t25 -120t-25 -120t-68 -98t-100.5 -66.5t-121.5 -24.5q-65 0 -122.5 24.5t-100 66.5t-67.5 98t-25 120z" />
    <glyph glyph-name="Ocircumflex" unicode="&#xd4;" horiz-adv-x="692" 
d="M342 827l-97 -110h23l74 84v26zM428 717h24l-98 110v-26zM416 712l-68 76l-68 -77l17 -20l51 59l50 -59zM342 121q-40 0 -73.5 17t-55.5 47l-15 -9q21 -33 61 -53t83 -20q38 0 70.5 13.5t56.5 37.5t37.5 55.5t13.5 67.5q0 51 -28 91l-13 -7q24 -38 24 -84
q0 -33 -12.5 -61.5t-34 -49.5t-51 -33t-63.5 -12zM62 277q0 57 22.5 108t61 88.5t90 59.5t110.5 22q72 0 132.5 -31.5t98.5 -85.5l15 9q-42 57 -106 91t-140 34q-62 0 -117 -23.5t-96 -63.5t-65 -93.5t-24 -114.5q0 -91 49 -161l15 9q-46 67 -46 152zM348 683l-51 -57
l-74 85l125 142l126 -141l-76 -85zM196 277q0 -30 11.5 -56t31 -45.5t46 -30.5t57.5 -11t58 11t47 30.5t31.5 45.5t11.5 56t-11.5 56t-31.5 45.5t-47 31t-58 11.5t-57.5 -11.5t-46 -31t-31 -45.5t-11.5 -56zM153 277q0 39 15 73t40.5 59.5t60 40t73.5 14.5q40 0 75 -14.5
t61 -40t40.5 -59.5t14.5 -73t-14.5 -73t-40.5 -59.5t-61 -40t-75 -14.5q-39 0 -73.5 14.5t-60 40t-40.5 59.5t-15 73zM571 425q-37 54 -96 85.5t-129 31.5q-56 0 -105.5 -21t-86 -57t-58 -84.5t-21.5 -102.5q0 -55 21.5 -103.5t58 -84.5t86 -57t105.5 -21q55 0 104.5 21
t86.5 57t58.5 84.5t21.5 103.5q0 40 -11.5 77t-33.5 68zM31 277q0 64 25 120t67.5 98t100 66t122.5 24q64 0 121.5 -24t100.5 -66t68 -98t25 -120t-25 -120t-68 -98t-100.5 -66.5t-121.5 -24.5q-65 0 -122.5 24.5t-100 66.5t-67.5 98t-25 120z" />
    <glyph glyph-name="Otilde" unicode="&#xd5;" horiz-adv-x="692" 
d="M473 774l-45 52v-26l23 -26h22zM362 786l-36 41v-26l36 -42v27zM375 760l41 42v26l-41 -47v-21zM314 827l-96 -110h22l74 84v26zM320 788l-68 -77l18 -20l50 59l49 -57l69 76l-17 19l-51 -53zM342 121q-40 0 -73.5 17t-55.5 47l-15 -9q21 -33 61 -53t83 -20
q38 0 70.5 13.5t56.5 37.5t37.5 55.5t13.5 67.5q0 51 -28 91l-13 -7q24 -38 24 -84q0 -33 -12.5 -61.5t-34 -49.5t-51 -33t-63.5 -12zM62 277q0 57 22.5 108t61 88.5t90 59.5t110.5 22q72 0 132.5 -31.5t98.5 -85.5l15 9q-42 57 -106 91t-140 34q-62 0 -117 -23.5t-96 -63.5
t-65 -93.5t-24 -114.5q0 -91 49 -161l15 9q-46 67 -46 152zM270 626l-75 85l125 142l51 -56l50 57l74 -85l-126 -143l-49 57zM196 277q0 -30 11.5 -56t31 -45.5t46 -30.5t57.5 -11t58 11t47 30.5t31.5 45.5t11.5 56t-11.5 56t-31.5 45.5t-47 31t-58 11.5t-57.5 -11.5
t-46 -31t-31 -45.5t-11.5 -56zM153 277q0 39 15 73t40.5 59.5t60 40t73.5 14.5q40 0 75 -14.5t61 -40t40.5 -59.5t14.5 -73t-14.5 -73t-40.5 -59.5t-61 -40t-75 -14.5q-39 0 -73.5 14.5t-60 40t-40.5 59.5t-15 73zM571 425q-37 54 -96 85.5t-129 31.5q-56 0 -105.5 -21
t-86 -57t-58 -84.5t-21.5 -102.5q0 -55 21.5 -103.5t58 -84.5t86 -57t105.5 -21q55 0 104.5 21t86.5 57t58.5 84.5t21.5 103.5q0 40 -11.5 77t-33.5 68zM31 277q0 64 25 120t67.5 98t100 66t122.5 24q64 0 121.5 -24t100.5 -66t68 -98t25 -120t-25 -120t-68 -98
t-100.5 -66.5t-121.5 -24.5q-65 0 -122.5 24.5t-100 66.5t-67.5 98t-25 120z" />
    <glyph glyph-name="Odieresis" unicode="&#xd6;" horiz-adv-x="692" 
d="M440 746l-17 17l-17 -19l17 -18zM284 746l-17 17l-17 -17l17 -20zM476 752l-45 48v-26l22 -22h23zM320 752l-45 48v-26l22 -22h23zM419 804l-49 -54h24l25 28v26zM263 804l-49 -54h24l25 28v26zM342 121q-40 0 -73.5 17t-55.5 47l-15 -9q21 -33 61 -53t83 -20
q38 0 70.5 13.5t56.5 37.5t37.5 55.5t13.5 67.5q0 51 -28 91l-13 -7q24 -38 24 -84q0 -33 -12.5 -61.5t-34 -49.5t-51 -33t-63.5 -12zM192 744l75 84l75 -82l-75 -84zM348 744l75 84l76 -84l-76 -82zM62 277q0 57 22.5 108t61 88.5t90 59.5t110.5 22q72 0 132.5 -31.5
t98.5 -85.5l15 9q-42 57 -106 91t-140 34q-62 0 -117 -23.5t-96 -63.5t-65 -93.5t-24 -114.5q0 -91 49 -161l15 9q-46 67 -46 152zM196 277q0 -30 11.5 -56t31 -45.5t46 -30.5t57.5 -11t58 11t47 30.5t31.5 45.5t11.5 56t-11.5 56t-31.5 45.5t-47 31t-58 11.5t-57.5 -11.5
t-46 -31t-31 -45.5t-11.5 -56zM153 277q0 39 15 73t40.5 59.5t60 40t73.5 14.5q40 0 75 -14.5t61 -40t40.5 -59.5t14.5 -73t-14.5 -73t-40.5 -59.5t-61 -40t-75 -14.5q-39 0 -73.5 14.5t-60 40t-40.5 59.5t-15 73zM571 425q-37 54 -96 85.5t-129 31.5q-56 0 -105.5 -21
t-86 -57t-58 -84.5t-21.5 -102.5q0 -55 21.5 -103.5t58 -84.5t86 -57t105.5 -21q55 0 104.5 21t86.5 57t58.5 84.5t21.5 103.5q0 40 -11.5 77t-33.5 68zM31 277q0 64 25 120t67.5 98t100 66t122.5 24q64 0 121.5 -24t100.5 -66t68 -98t25 -120t-25 -120t-68 -98
t-100.5 -66.5t-121.5 -24.5q-65 0 -122.5 24.5t-100 66.5t-67.5 98t-25 120z" />
    <glyph glyph-name="Oslash" unicode="&#xd8;" horiz-adv-x="692" 
d="M31 277q0 64 25 120t67.5 98t100 66t122.5 24q64 0 121.5 -24t100.5 -66t68 -98t25 -120t-25 -120t-68 -98t-100.5 -66.5t-121.5 -24.5q-65 0 -122.5 24.5t-100 66.5t-67.5 98t-25 120zM571 425q-37 54 -96 85.5t-129 31.5q-56 0 -105.5 -21t-86 -57t-58 -84.5
t-21.5 -102.5q0 -55 21.5 -103.5t58 -84.5t86 -57t105.5 -21q55 0 104.5 21t86.5 57t58.5 84.5t21.5 103.5q0 40 -11.5 77t-33.5 68zM417 449q25 -12 57 -39l-303 -214q-18 34 -18 75q0 39 14 74.5t39 61.5t60 41.5t76 15.5q40 0 75 -15zM517 350q16 -36 16 -73
q0 -39 -14.5 -73t-40.5 -59.5t-61 -40t-75 -14.5q-35 0 -66.5 11.5t-62.5 40.5zM62 277q0 57 22.5 108t61 88.5t90 59.5t110.5 22q72 0 132.5 -31.5t98.5 -85.5l15 9q-42 57 -106 91t-140 34q-62 0 -117 -23.5t-96 -63.5t-65 -93.5t-24 -114.5q0 -91 49 -161l15 9
q-46 67 -46 152zM196 268l203 141q-26 12 -57 12t-57.5 -11.5t-46 -31t-31 -45.5t-11.5 -56v-9zM479 221q5 12 7.5 25t3.5 27l-197 -132q18 -7 49 -7q48 0 83.5 24t53.5 63zM342 121q-28 0 -76 17l-28 -4q46 -31 104 -31q38 0 70.5 13.5t56.5 37.5t37.5 55.5t13.5 67.5
q0 28 -7 46l-12 -25v-14q0 -42 -13.5 -73t-35.5 -51t-51 -29.5t-59 -9.5zM412 403l-215 -150l-20 -35l276 190z" />
    <glyph glyph-name="Ugrave" unicode="&#xd9;" horiz-adv-x="498" 
d="M264 121h-28l-9 -17h45zM303 159l-29 -33l9 -17l37 43zM225 124l-31 34l-17 -6l40 -44zM211 829l-49 -54h24l25 28v26zM182 572h-107l17 -17h73zM427 572h-111l17 -17h76zM319 717l-96 108v-26l73 -82h23zM284 711l-69 77l-17 -19l68 -78zM325 545l-17 18v-393l17 -6v381
zM81 549l-18 17v-461l18 4v440zM140 769l75 84l127 -142l-76 -84zM94 542v-434l84 -95h141l84 95v434h-65v-389l-54 -62h-69l-55 61v390h-66zM50 585h153v-418l29 -33h32l31 34v417h152v-491l-108 -124h-180l-109 124v491z" />
    <glyph glyph-name="Uacute" unicode="&#xda;" horiz-adv-x="498" 
d="M264 121h-28l-9 -17h45zM303 159l-29 -33l9 -17l37 43zM342 774l-45 52l6 -26l16 -26h23zM225 124l-31 34l-17 -6l40 -44zM182 572h-107l17 -17h73zM427 572h-111l17 -17h76zM284 828l-99 -113h22l77 87v26zM290 788l-69 -77l17 -20l68 78zM325 545l-17 18v-393l17 -6
v381zM81 549l-18 17v-461l18 4v440zM290 854l73 -85l-125 -143l-74 85zM94 542v-434l84 -95h141l84 95v434h-65v-389l-54 -62h-69l-55 61v390h-66zM50 585h153v-418l29 -33h32l31 34v417h152v-491l-108 -124h-180l-109 124v491z" />
    <glyph glyph-name="Ucircumflex" unicode="&#xdb;" horiz-adv-x="498" 
d="M264 121h-28l-9 -17h45zM303 159l-29 -33l9 -17l37 43zM225 124l-31 34l-17 -6l40 -44zM182 572h-107l17 -17h73zM427 572h-111l17 -17h76zM237 827l-97 -110h23l74 84v26zM323 717h24l-98 110v-26zM311 712l-68 76l-68 -77l17 -20l51 59l50 -59zM325 545l-14 18v-393
l14 -6v381zM81 549l-18 17v-461l18 4v440zM243 683l-51 -57l-74 85l125 142l126 -141l-76 -85zM94 542v-434l84 -95h141l84 95v434h-65v-389l-54 -62h-69l-55 61v390h-66zM50 585h153v-418l29 -33h32l31 34v417h152v-491l-108 -124h-180l-109 124v491z" />
    <glyph glyph-name="Udieresis" unicode="&#xdc;" horiz-adv-x="498" 
d="M264 121h-28l-9 -17h45zM187 746l-17 17l-17 -19l17 -18zM343 746l-17 17l-17 -17l17 -20zM223 752l-45 48v-26l21 -22h24zM379 752l-45 48v-26l21 -22h24zM303 159l-29 -33l9 -17l37 43zM225 124l-31 34l-17 -6l40 -44zM166 804l-49 -54h23l26 28v26zM322 804l-49 -54
h24l25 28v26zM182 572h-107l17 -17h73zM427 572h-111l17 -17h76zM325 545l-17 18v-393l17 -6v381zM81 549l-18 17v-461l18 4v440zM95 744l75 84l75 -82l-75 -84zM251 744l75 84l75 -84l-75 -82zM94 542v-434l84 -95h141l84 95v434h-65v-389l-54 -62h-69l-55 61v390h-66z
M50 585h153v-418l29 -33h32l31 34v417h152v-491l-108 -124h-180l-109 124v491z" />
    <glyph glyph-name="Yacute" unicode="&#xdd;" horiz-adv-x="508" 
d="M336 774l-46 52v-26l23 -26h23zM71 550v26l-74 -85h22zM496 491h22l-74 85v-26zM278 828l-99 -113h22l77 87v26zM284 788l-69 -77l17 -20l68 78zM251 385l-168 191v-26l168 -191v26zM432 550v26l-168 -191v-26zM212 249l-18 -4v-274l18 42v236zM284 854l73 -85l-125 -143
l-74 85zM225 261v-227l65 74v153l195 223l-47 53l-180 -204l-181 204l-48 -54zM-28 483l105 120l181 -206l180 206l104 -119l-209 -239v-152l-152 -174v326z" />
    <glyph glyph-name="Thorn" unicode="&#xde;" horiz-adv-x="416" 
d="M389 285l-183 -210v-105h-152v615h152v-100h183v-200zM346 300v142h-183v100h-66v-529h66v79zM163 195v169h148zM84 9v537l-17 18v-573zM350 455l18 17h-175l-23 -17h180zM168 555l18 17h-111l18 -17h75zM186 242l84 94l-35 -14l-30 -34zM206 309l10 12h-10v-12z" />
    <glyph glyph-name="germandbls" unicode="&#xdf;" horiz-adv-x="932" 
d="M287 143h-23l-18 -20v-27zM141 186v26l-74 -86h22zM234 101v26l-81 91v-26zM378 457h23l-153 172v-26zM67 412l169 191v26l-193 -217h24zM414 153h23l-218 248h-22zM150 176l-48 -55l140 -157l161 183l-228 260l67 75l78 -87l48 54l-126 141l-163 -184l230 -258l-67 -75z
M242 137l9 10l-230 259l221 249l184 -206l-106 -119l-78 87l-10 -10l228 -260l-218 -248l-196 222l104 121zM753 143h-23l-18 -20v-27zM607 186v26l-74 -86h22zM700 101v26l-81 91v-26zM844 457h23l-153 172v-26zM533 412l169 191v26l-193 -217h24zM880 153h23l-218 248h-22
zM616 176l-48 -55l140 -157l161 183l-228 260l67 75l78 -87l48 54l-126 141l-163 -184l230 -258l-67 -75zM708 137l9 10l-230 259l221 249l184 -206l-106 -119l-78 87l-10 -10l228 -260l-218 -248l-196 222l104 121z" />
    <glyph glyph-name="agrave" unicode="&#xe0;" 
d="M351 829l-48 -54h23l25 28v26zM460 717l-97 108v-26l73 -82h24zM279 35l-85 96l-24 2l109 -124v26zM424 711l-69 77l-17 -19l69 -78zM296 0l1 -2l13 12v275l-17 -44v-222l-2 2v-25zM205 140l75 -87v172zM390 544l18 45l-391 -443h23zM280 769l75 84l127 -142l-75 -84z
M389 522l-337 -382l179 -202l46 53l-130 149l176 201v-328h66v509zM312 -34l-81 -93l-236 267l438 497v-667h-117z" />
    <glyph glyph-name="aacute" unicode="&#xe1;" 
d="M468 774l-45 52v-26l23 -26h22zM411 828l-100 -113h23l77 87v26zM279 35l-85 96l-24 2l109 -124v26zM416 788l-68 -77l16 -20l69 78zM296 0l1 -2l13 12v275l-17 -44v-222l-2 2v-25zM205 140l75 -87v172zM390 544l18 45l-391 -443h23zM416 854l74 -85l-126 -143l-74 85z
M389 522l-337 -382l179 -202l46 53l-130 149l176 201v-328h66v509zM312 -34l-81 -93l-236 267l438 497v-667h-117z" />
    <glyph glyph-name="acircumflex" unicode="&#xe2;" 
d="M372 827l-96 -110h22l74 84v26zM459 717h23l-98 110v-26zM279 35l-85 96l-24 2l109 -124v26zM296 0l1 -2l13 12v275l-17 -44v-222l-2 2v-25zM447 712l-69 76l-68 -77l18 -20l50 59l50 -59zM205 140l75 -87v172zM390 544l18 45l-391 -443h23zM389 522l-337 -382l179 -202
l46 53l-130 149l176 201v-328h66v509zM312 -34l-81 -93l-236 267l431 489l-48 54l-50 -57l-75 85l125 142l127 -141l-72 -81v-661h-117z" />
    <glyph glyph-name="atilde" unicode="&#xe3;" 
d="M492 774l-45 52v-26l22 -26h23zM381 786l-37 41v-26l37 -42v27zM393 760l41 42v26l-41 -47v-21zM332 827l-96 -110h22l74 84v26zM279 35l-85 96l-24 2l109 -124v26zM296 0l1 -2l13 12v275l-17 -44v-222l-2 2v-25zM205 140l75 -87v172zM338 788l-67 -77l17 -20l50 59
l50 -57l68 76l-16 19l-52 -53zM390 544l18 45l-391 -443h23zM288 626l-75 85l125 142l51 -56l51 57l73 -85l-125 -143l-50 57zM389 522l-337 -382l179 -202l46 53l-130 149l176 201v-328h66v509zM312 -34l-81 -93l-236 267l438 497v-667h-117z" />
    <glyph glyph-name="adieresis" unicode="&#xe4;" 
d="M333 746l-17 17l-18 -19l18 -18zM489 746l-17 17l-18 -17l18 -20zM525 752l-46 48v-26l22 -22h24zM368 752l-45 48v-26l22 -22h23zM311 804l-48 -54h23l25 28v26zM467 804l-48 -54h23l25 28v26zM279 35l-85 96l-24 2l109 -124v26zM296 0l1 -2l13 12v275l-17 -44v-222
l-2 2v-25zM205 140l75 -87v172zM390 544l18 45l-391 -443h23zM240 744l76 84l74 -82l-74 -84zM396 744l76 84l75 -84l-75 -82zM389 522l-337 -382l179 -202l46 53l-130 149l176 201v-328h66v509zM312 -34l-81 -93l-236 267l438 497v-667h-117z" />
    <glyph glyph-name="aring" unicode="&#xe5;" 
d="M354 736l-6 7h-17l23 -26v19zM385 743h-17l-6 -7v-19zM453 753h17l-105 120l-1 -16zM245 756l15 -6l95 112l-5 19zM279 35l-85 96l-24 2l109 -124v26zM315 747l43 51l43 -51l-43 -48zM296 0l1 -2l13 12v275l-17 -44v-222l-2 2v-25zM205 140l75 -87v172zM390 544l18 45
l-391 -443h23zM358 850l-87 -103l87 -102l88 102zM358 598l-135 149l132 153l131 -153zM389 522l-337 -382l179 -202l46 53l-130 149l176 201v-328h66v509zM312 -34l-81 -93l-236 267l438 497v-667h-117z" />
    <glyph glyph-name="ae" unicode="&#xe6;" horiz-adv-x="651" 
d="M279 9v26l-85 96l-24 2zM433 104h146l18 17h-164v-17zM433 329h137l39 18h-176v-18zM398 572l5 -17h177l17 17h-199zM296 0l1 -2l13 12v275l-14 -38v-247zM280 225l-75 -85l75 -87v172zM40 146l352 404l-5 15l-370 -419h23zM401 542l-349 -403l179 -201l46 53l-130 149
l179 202v-329h249v78h-186v147h103l67 78h-170v148h186v78h-174zM387 585h231v-164h-183v-61h220l-143 -165h-77v-61h183v-164h-302l-85 -97l-236 267z" />
    <glyph glyph-name="ccedilla" unicode="&#xe7;" horiz-adv-x="461" 
d="M319 -152l-45 52v-26l23 -26h22zM418 475l-76 87v-26l53 -61h23zM262 -98l-100 -113h23l77 87v26zM267 -138l-68 -77l16 -20l69 78zM419 -36l-220 248h-22l219 -248h23zM330 562l-306 -338h23l283 312v26zM384 -42l-231 260l230 251l-47 54l-276 -305l277 -314zM263 -76
l-260 294l333 371l104 -120l-229 -251l230 -260l-226 -258l-74 85z" />
    <glyph glyph-name="egrave" unicode="&#xe8;" horiz-adv-x="438" 
d="M192 829l-49 -54h23l26 28v26zM300 717l-96 108v-26l73 -82h23zM264 711l-68 77l-17 -19l68 -78zM362 121h-165l-18 -17h166zM375 347h-182l-17 -18h160zM363 572h-293l18 -17h258zM79 546l-17 18v-574l17 17v539zM121 769l75 84l127 -142l-76 -84zM341 542h-249v-529
h249v78h-183v147h100l67 78h-167v148h183v78zM201 421v-61h220l-144 -165h-76v-61h183v-164h-335v615h335v-164h-183z" />
    <glyph glyph-name="eacute" unicode="&#xe9;" horiz-adv-x="438" 
d="M297 774l-45 52v-26l23 -26h22zM240 828l-100 -113h23l77 87v26zM245 788l-68 -77l16 -20l69 78zM362 121h-165l-18 -17h166zM375 347h-182l-17 -18h160zM363 572h-293l18 -17h258zM79 546l-17 18v-574l17 17v539zM245 854l74 -85l-126 -143l-73 85zM341 542h-249v-529
h249v78h-183v147h100l67 78h-167v148h183v78zM201 421v-61h220l-144 -165h-76v-61h183v-164h-335v615h335v-164h-183z" />
    <glyph glyph-name="ecircumflex" unicode="&#xea;" horiz-adv-x="438" 
d="M210 827l-96 -110h22l74 84v26zM297 717h23l-98 110v-26zM362 121h-165l-18 -17h166zM375 347h-182l-17 -18h160zM284 712l-68 76l-68 -77l18 -20l50 59l50 -59zM363 572h-293l18 -17h258zM79 546l-17 18v-574l17 17v539zM216 683l-50 -57l-75 85l125 142l126 -141
l-76 -85zM341 542h-249v-529h249v78h-183v147h100l67 78h-167v148h183v78zM201 421v-61h220l-144 -165h-76v-61h183v-164h-335v615h335v-164h-183z" />
    <glyph glyph-name="edieresis" unicode="&#xeb;" horiz-adv-x="438" 
d="M159 746l-18 17l-17 -19l17 -18zM315 746l-18 17l-17 -17l17 -20zM350 752l-45 48v-26l22 -22h23zM194 752l-45 48v-26l22 -22h23zM137 804l-49 -54h24l25 28v26zM293 804l-48 -54h23l25 28v26zM362 121h-165l-18 -17h166zM375 347h-182l-17 -18h160zM363 572h-293
l18 -17h258zM79 546l-17 18v-574l17 17v539zM66 744l75 84l76 -82l-76 -84zM222 744l75 84l76 -84l-76 -82zM341 542h-249v-529h249v78h-183v147h100l67 78h-167v148h183v78zM201 421v-61h220l-144 -165h-76v-61h183v-164h-335v615h335v-164h-183z" />
    <glyph glyph-name="igrave" unicode="&#xec;" horiz-adv-x="246" 
d="M95 829l-48 -54h23l25 28v26zM186 572h-111l20 -17h73zM204 717l-96 108v-26l72 -82h24zM168 711l-68 77l-18 -19l69 -78zM84 546l-17 18v-589l17 41v530zM24 769l76 84l126 -142l-75 -84zM163 542h-66v-508l66 74v434zM54 -79v664h152v-493z" />
    <glyph glyph-name="iacute" unicode="&#xed;" horiz-adv-x="246" 
d="M220 774l-45 52v-26l23 -26h22zM186 572h-111l18 -17h75zM163 828l-100 -113h23l77 87v26zM168 788l-68 -77l16 -20l69 78zM84 546l-17 18v-589l17 41v530zM168 854l74 -85l-126 -143l-74 85zM163 542h-66v-508l66 74v434zM54 -79v664h152v-493z" />
    <glyph glyph-name="icircumflex" unicode="&#xee;" horiz-adv-x="246" 
d="M186 572h-111l18 -17h75zM122 827l-96 -110h23l73 84v26zM209 717h23l-98 110v-26zM197 712l-69 76l-67 -77l17 -20l50 59l51 -59zM84 546l-17 18v-589l17 41v530zM128 683l-50 -57l-75 85l125 142l127 -141l-76 -85zM163 542h-66v-508l66 74v434zM54 -79v664h152v-493z
" />
    <glyph glyph-name="idieresis" unicode="&#xef;" horiz-adv-x="246" 
d="M65 746l-17 17l-18 -19l18 -18zM221 746l-17 17l-18 -17l18 -20zM257 752l-45 48v-26l21 -22h24zM101 752l-46 48v-26l22 -22h24zM43 804l-48 -54h23l25 28v26zM199 804l-48 -54h23l25 28v26zM186 572h-111l18 -17h75zM84 546l-17 18v-589l17 41v530zM-28 744l76 84
l75 -82l-75 -84zM128 744l76 84l75 -84l-75 -82zM163 542h-66v-508l66 74v434zM54 -79v664h152v-493z" />
    <glyph glyph-name="eth" unicode="&#xf0;" horiz-adv-x="531" 
d="M40 383h58l-13 15h-60zM12 277l15 17v82l-15 15v-114zM189 557l12 14l-6 3h-94l17 -17h71zM223 572l52 58v26l-68 -76zM92 408l18 -19v159l-18 17v-157zM213 264l129 148l-22 -4l-91 -100zM110 23v251l-18 -13v-288zM287 632l183 -209h23l-206 235v-26zM232 331l75 86
l-75 83v-169zM123 34l335 383l-177 201l-47 -54l131 -147l-176 -201v328h-66v-173h-84v-75h84v-262zM0 410h79v177h117l85 96l235 -266l-437 -498v339h-79v152z" />
    <glyph glyph-name="ntilde" unicode="&#xf1;" horiz-adv-x="567" 
d="M403 774l-45 52v-26l23 -26h22zM292 786l-36 41v-26l36 -42v27zM304 760l42 42v26l-42 -47v-21zM480 555l18 17h-107l17 -17h72zM244 827l-97 -110h23l74 84v26zM398 548l-17 17v-309l17 -47v339zM250 788l-68 -77l17 -20l51 59l49 -57l69 76l-17 19l-51 -53zM368 251
l-299 340l16 -44l301 -342zM77 535l-17 46v-591l17 18v527zM199 626l-74 85l125 142l51 -56l50 57l74 -85l-126 -143l-49 57zM476 66v476h-65v-385l-321 365v-509h66v328l281 -322zM368 585h151v-534l-83 -95l-237 269v-255h-152v667l321 -366v314z" />
    <glyph glyph-name="ograve" unicode="&#xf2;" horiz-adv-x="692" 
d="M387 141q1 0 2 1h-2v-1zM394 409q-6 2 -7 3v-3h7zM286 412l-8 -3h8v3zM474 329q-1 1 -1.5 3.5t-1.5 3.5v-7h3zM471 216l5 12h-5v-12zM245 388q-5 -4 -9 -7.5t-9 -7.5h18v15zM446 373q-5 4 -9 8t-9 8v-16h18zM190 270q0 -8 1 -15.5t2 -14.5h5v30h-8zM195 316
q-5 -22 -5 -34h8v34h-3zM224 184q9 -12 21 -19v19h-21zM298 138q13 -4 32 -4v8h-32v-4zM428 164q7 4 22 20h-22v-20zM342 134q20 0 41 6h-8v2h-33v-8zM375 415q-17 4 -33 6v-12h33v6zM330 421q-15 -1 -32 -6v-6h32v12zM479 240q2 7 3 14.5t2 15.5h-13v-30h8zM484 282
q-2 18 -6 34h-7v-34h13zM387 397v-24h29v24h-29zM257 397v-24h29v24h-29zM342 397v-24h33v24h-33zM298 397v-24h32v24h-32zM257 156l2 -2h27v30h-29v-28zM414 154q1 0 2 1v29h-29v-30h27zM416 270h-29v-30h29v30zM286 270h-29v-30h29v30zM459 270h-31v-30h31v30zM330 270
h-32v-30h32v30zM257 361v-32h29v32h-29zM416 228h-29v-32h29v32zM330 184h-32v-30h32v30zM387 361v-32h29v32h-29zM286 228h-29v-32h29v32zM375 270h-33v-30h33v30zM375 184h-33v-30h33v30zM305 803v26l-48 -54h23zM459 357l-3 4h-28v-32h31v28zM460 197l-1 31h-31v-32h31z
M387 316v-34h29v34h-29zM257 316v-34h29v34h-29zM245 270h-35v-30h35v30zM330 228h-32v-32h32v32zM342 361v-32h33v32h-33zM298 361v-32h32v32h-32zM375 228h-33v-32h33v32zM428 316v-34h31v34h-31zM217 361q-6 -8 -7 -12v-20h35v32h-28zM210 204l4 -8h31v32h-35v-24z
M298 316v-34h32v34h-32zM342 316v-34h33v34h-33zM210 316v-34h35v34h-35zM390 717h24l-97 108v-26zM361 691l17 20l-68 77l-18 -19zM336 121q-40 0 -73.5 16.5t-55.5 46.5l-15 -8q21 -33 61 -53t83 -20q38 0 70.5 13.5t56.5 37.5t37.5 55.5t13.5 67.5q0 51 -28 91l-13 -7
q24 -38 24 -84q0 -33 -12.5 -61.5t-34 -49.5t-51 -33t-63.5 -12zM55 277q0 57 22.5 108t61.5 88.5t90.5 59.5t110.5 22q72 0 132.5 -31.5t98.5 -85.5l15 9q-42 57 -106 91t-140 34q-62 0 -117 -23.5t-96 -63.5t-65 -93.5t-24 -114.5q0 -91 49 -161l14 9q-22 31 -34 70.5
t-12 81.5zM361 627l-127 142l76 84l126 -142zM147 277q0 39 15 73t40.5 59.5t60 40t73.5 14.5q40 0 75 -14.5t61 -40t40.5 -59.5t14.5 -73t-14.5 -73t-40.5 -59.5t-61 -40t-75 -14.5q-39 0 -73.5 14.5t-60 40t-40.5 59.5t-15 73zM564 425q-36 54 -95 85.5t-129 31.5
q-56 0 -105 -21t-86.5 -57t-59 -84.5t-21.5 -102.5q0 -55 21.5 -103.5t59 -84.5t86.5 -57t105 -21q55 0 104.5 21t86.5 57t58.5 84.5t21.5 103.5q0 40 -11.5 77t-33.5 68zM25 277q0 64 25 120t67.5 98t100 66t122.5 24q64 0 121.5 -24t100.5 -66t68 -98t25 -120t-25 -120
t-68 -98t-100.5 -66.5t-121.5 -24.5q-65 0 -122.5 24.5t-100 66.5t-67.5 98t-25 120z" />
    <glyph glyph-name="oacute" unicode="&#xf3;" horiz-adv-x="692" 
d="M387 141q1 0 2 1h-2v-1zM394 409q-6 2 -7 3v-3h7zM286 412l-8 -3h8v3zM474 329q-1 1 -1.5 3.5t-1.5 3.5v-7h3zM471 216l5 12h-5v-12zM245 388q-5 -4 -9 -7.5t-9 -7.5h18v15zM446 373q-5 4 -9 8t-9 8v-16h18zM190 270q0 -8 1 -15.5t2 -14.5h5v30h-8zM195 316
q-5 -22 -5 -34h8v34h-3zM224 184q9 -12 21 -19v19h-21zM298 138q13 -4 32 -4v8h-32v-4zM428 164q7 4 22 20h-22v-20zM342 134q20 0 41 6h-8v2h-33v-8zM375 415q-17 4 -33 6v-12h33v6zM330 421q-15 -1 -32 -6v-6h32v12zM479 240q2 7 3 14.5t2 15.5h-13v-30h8zM484 282
q-2 18 -6 34h-7v-34h13zM387 397v-24h29v24h-29zM257 397v-24h29v24h-29zM342 397v-24h33v24h-33zM298 397v-24h32v24h-32zM257 156l2 -2h27v30h-29v-28zM414 154q1 0 2 1v29h-29v-30h27zM416 270h-29v-30h29v30zM286 270h-29v-30h29v30zM396 774h23l-45 52v-26zM459 270
h-31v-30h31v30zM330 270h-32v-30h32v30zM257 361v-32h29v32h-29zM416 228h-29v-32h29v32zM330 184h-32v-30h32v30zM375 184h-33v-30h33v30zM387 361v-32h29v32h-29zM286 228h-29v-32h29v32zM375 270h-33v-30h33v30zM459 357l-3 4h-28v-32h31v28zM460 197l-1 31h-31v-32h31z
M387 316v-34h29v34h-29zM257 316v-34h29v34h-29zM245 270h-35v-30h35v30zM330 228h-32v-32h32v32zM342 361v-32h33v32h-33zM298 361v-32h32v32h-32zM375 228h-33v-32h33v32zM428 316v-34h31v34h-31zM217 361q-6 -8 -7 -12v-20h35v32h-28zM210 204l4 -8h31v32h-35v-24z
M298 316v-34h32v34h-32zM342 316v-34h33v34h-33zM210 316v-34h35v34h-35zM362 802v26l-100 -113h22zM383 769l-16 19l-69 -77l17 -20zM336 121q-40 0 -73.5 16.5t-55.5 46.5l-15 -8q21 -33 61 -53t83 -20q38 0 70.5 13.5t56.5 37.5t37.5 55.5t13.5 67.5q0 51 -28 91l-13 -7
q24 -38 24 -84q0 -33 -12.5 -61.5t-34 -49.5t-51 -33t-63.5 -12zM55 277q0 57 22.5 108t61.5 88.5t90.5 59.5t110.5 22q72 0 132.5 -31.5t98.5 -85.5l15 9q-42 57 -106 91t-140 34q-62 0 -117 -23.5t-96 -63.5t-65 -93.5t-24 -114.5q0 -91 49 -161l14 9q-22 31 -34 70.5
t-12 81.5zM241 711l126 143l73 -85l-125 -143zM147 277q0 39 15 73t40.5 59.5t60 40t73.5 14.5q40 0 75 -14.5t61 -40t40.5 -59.5t14.5 -73t-14.5 -73t-40.5 -59.5t-61 -40t-75 -14.5q-39 0 -73.5 14.5t-60 40t-40.5 59.5t-15 73zM564 425q-36 54 -95 85.5t-129 31.5
q-56 0 -105 -21t-86.5 -57t-59 -84.5t-21.5 -102.5q0 -55 21.5 -103.5t59 -84.5t86.5 -57t105 -21q55 0 104.5 21t86.5 57t58.5 84.5t21.5 103.5q0 40 -11.5 77t-33.5 68zM25 277q0 64 25 120t67.5 98t100 66t122.5 24q64 0 121.5 -24t100.5 -66t68 -98t25 -120t-25 -120
t-68 -98t-100.5 -66.5t-121.5 -24.5q-65 0 -122.5 24.5t-100 66.5t-67.5 98t-25 120z" />
    <glyph glyph-name="ocircumflex" unicode="&#xf4;" horiz-adv-x="692" 
d="M387 141q1 0 2 1h-2v-1zM394 409q-6 2 -7 3v-3h7zM286 412l-8 -3h8v3zM474 329q-1 1 -1.5 3.5t-1.5 3.5v-7h3zM471 216l5 12h-5v-12zM245 388q-5 -4 -9 -7.5t-9 -7.5h18v15zM446 373q-5 4 -9 8t-9 8v-16h18zM190 270q0 -8 1 -15.5t2 -14.5h5v30h-8zM195 316
q-5 -22 -5 -34h8v34h-3zM224 184q9 -12 21 -19v19h-21zM298 138q13 -4 32 -4v8h-32v-4zM428 164q7 4 22 20h-22v-20zM342 134q20 0 41 6h-8v2h-33v-8zM375 415q-17 4 -33 6v-12h33v6zM330 421q-15 -1 -32 -6v-6h32v12zM479 240q2 7 3 14.5t2 15.5h-13v-30h8zM484 282
q-2 18 -6 34h-7v-34h13zM387 397v-24h29v24h-29zM257 397v-24h29v24h-29zM298 397v-24h32v24h-32zM342 397v-24h33v24h-33zM257 156l2 -2h27v30h-29v-28zM414 154q1 0 2 1v29h-29v-30h27zM416 270h-29v-30h29v30zM286 270h-29v-30h29v30zM459 270h-31v-30h31v30zM330 270
h-32v-30h32v30zM257 361v-32h29v32h-29zM416 228h-29v-32h29v32zM330 184h-32v-30h32v30zM387 361v-32h29v32h-29zM286 228h-29v-32h29v32zM375 270h-33v-30h33v30zM375 184h-33v-30h33v30zM459 357l-3 4h-28v-32h31v28zM460 197l-1 31h-31v-32h31zM387 316v-34h29v34h-29z
M257 316v-34h29v34h-29zM245 270h-35v-30h35v30zM330 228h-32v-32h32v32zM342 361v-32h33v32h-33zM298 361v-32h32v32h-32zM375 228h-33v-32h33v32zM428 316v-34h31v34h-31zM217 361q-6 -8 -7 -12v-20h35v32h-28zM210 204l4 -8h31v32h-35v-24zM298 316v-34h32v34h-32z
M342 316v-34h33v34h-33zM210 316v-34h35v34h-35zM342 801v26l-97 -110h23zM354 801l74 -84h24l-98 110v-26zM398 691l18 21l-68 76l-68 -77l17 -20l51 59zM336 121q-40 0 -73.5 16.5t-55.5 46.5l-15 -8q21 -33 61 -53t83 -20q38 0 70.5 13.5t56.5 37.5t37.5 55.5t13.5 67.5
q0 51 -28 91l-13 -7q24 -38 24 -84q0 -33 -12.5 -61.5t-34 -49.5t-51 -33t-63.5 -12zM55 277q0 57 22.5 108t61.5 88.5t90.5 59.5t110.5 22q72 0 132.5 -31.5t98.5 -85.5l15 9q-42 57 -106 91t-140 34q-62 0 -117 -23.5t-96 -63.5t-65 -93.5t-24 -114.5q0 -91 49 -161l14 9
q-22 31 -34 70.5t-12 81.5zM398 627l-50 56l-51 -57l-74 85l125 142l126 -141zM147 277q0 39 15 73t40.5 59.5t60 40t73.5 14.5q40 0 75 -14.5t61 -40t40.5 -59.5t14.5 -73t-14.5 -73t-40.5 -59.5t-61 -40t-75 -14.5q-39 0 -73.5 14.5t-60 40t-40.5 59.5t-15 73zM564 425
q-36 54 -95 85.5t-129 31.5q-56 0 -105 -21t-86.5 -57t-59 -84.5t-21.5 -102.5q0 -55 21.5 -103.5t59 -84.5t86.5 -57t105 -21q55 0 104.5 21t86.5 57t58.5 84.5t21.5 103.5q0 40 -11.5 77t-33.5 68zM25 277q0 64 25 120t67.5 98t100 66t122.5 24q64 0 121.5 -24t100.5 -66
t68 -98t25 -120t-25 -120t-68 -98t-100.5 -66.5t-121.5 -24.5q-65 0 -122.5 24.5t-100 66.5t-67.5 98t-25 120z" />
    <glyph glyph-name="otilde" unicode="&#xf5;" horiz-adv-x="692" 
d="M387 141q1 0 2 1h-2v-1zM394 409q-6 2 -7 3v-3h7zM286 412l-8 -3h8v3zM474 329q-1 1 -1.5 3.5t-1.5 3.5v-7h3zM471 216l5 12h-5v-12zM245 388q-5 -4 -9 -7.5t-9 -7.5h18v15zM446 373q-5 4 -9 8t-9 8v-16h18zM190 270q0 -8 1 -15.5t2 -14.5h5v30h-8zM195 316
q-5 -22 -5 -34h8v34h-3zM224 184q9 -12 21 -19v19h-21zM298 138q13 -4 32 -4v8h-32v-4zM428 164q7 4 22 20h-22v-20zM342 134q20 0 41 6h-8v2h-33v-8zM375 415q-17 4 -33 6v-12h33v6zM330 421q-15 -1 -32 -6v-6h32v12zM479 240q2 7 3 14.5t2 15.5h-13v-30h8zM484 282
q-2 18 -6 34h-7v-34h13zM257 397v-24h29v24h-29zM387 397v-24h29v24h-29zM298 397v-24h32v24h-32zM342 397v-24h33v24h-33zM257 156l2 -2h27v30h-29v-28zM414 154q1 0 2 1v29h-29v-30h27zM286 270h-29v-30h29v30zM416 270h-29v-30h29v30zM451 774h22l-45 52v-26zM459 270
h-31v-30h31v30zM330 184h-32v-30h32v30zM257 361v-32h29v32h-29zM416 228h-29v-32h29v32zM387 361v-32h29v32h-29zM286 228h-29v-32h29v32zM375 270h-33v-30h33v30zM375 184h-33v-30h33v30zM330 270h-32v-30h32v30zM362 759v27l-32 41l-4 -26zM459 357l-3 4h-28v-32h31v28z
M460 197l-1 31h-31v-32h31zM375 781v-21l41 42v26zM387 316v-34h29v34h-29zM257 316v-34h29v34h-29zM245 270h-35v-30h35v30zM342 361v-32h33v32h-33zM330 228h-32v-32h32v32zM298 361v-32h32v32h-32zM375 228h-33v-32h33v32zM428 316v-34h31v34h-31zM217 361q-6 -8 -7 -12
v-20h35v32h-28zM210 204l4 -8h31v32h-35v-24zM342 316v-34h33v34h-33zM298 316v-34h32v34h-32zM210 316v-34h35v34h-35zM314 801v26l-104 -110h30zM370 735l-50 53l-68 -77l18 -20l50 59l49 -57l69 76l-17 19zM336 121q-40 0 -73.5 16.5t-55.5 46.5l-15 -8q21 -33 61 -53
t83 -20q38 0 70.5 13.5t56.5 37.5t37.5 55.5t13.5 67.5q0 51 -28 91l-13 -7q24 -38 24 -84q0 -33 -12.5 -61.5t-34 -49.5t-51 -33t-63.5 -12zM55 277q0 57 22.5 108t61.5 88.5t90.5 59.5t110.5 22q72 0 132.5 -31.5t98.5 -85.5l15 9q-42 57 -106 91t-140 34
q-62 0 -117 -23.5t-96 -63.5t-65 -93.5t-24 -114.5q0 -91 49 -161l14 9q-22 31 -34 70.5t-12 81.5zM320 683l-50 -57l-75 85l125 142l51 -56l50 57l74 -85l-126 -143zM147 277q0 39 15 73t40.5 59.5t60 40t73.5 14.5q40 0 75 -14.5t61 -40t40.5 -59.5t14.5 -73t-14.5 -73
t-40.5 -59.5t-61 -40t-75 -14.5q-39 0 -73.5 14.5t-60 40t-40.5 59.5t-15 73zM564 425q-36 54 -95 85.5t-129 31.5q-56 0 -105 -21t-86.5 -57t-59 -84.5t-21.5 -102.5q0 -55 21.5 -103.5t59 -84.5t86.5 -57t105 -21q55 0 104.5 21t86.5 57t58.5 84.5t21.5 103.5
q0 40 -11.5 77t-33.5 68zM25 277q0 64 25 120t67.5 98t100 66t122.5 24q64 0 121.5 -24t100.5 -66t68 -98t25 -120t-25 -120t-68 -98t-100.5 -66.5t-121.5 -24.5q-65 0 -122.5 24.5t-100 66.5t-67.5 98t-25 120z" />
    <glyph glyph-name="odieresis" unicode="&#xf6;" horiz-adv-x="692" 
d="M387 141q1 0 2 1h-2v-1zM394 409q-6 2 -7 3v-3h7zM286 412l-8 -3h8v3zM474 329q-1 1 -1.5 3.5t-1.5 3.5v-7h3zM471 216l5 12h-5v-12zM245 388q-5 -4 -9 -7.5t-9 -7.5h18v15zM446 373q-5 4 -9 8t-9 8v-16h18zM190 270q0 -8 1 -15.5t2 -14.5h5v30h-8zM195 316
q-5 -22 -5 -34h8v34h-3zM224 184q9 -12 21 -19v19h-21zM298 138q13 -4 32 -4v8h-32v-4zM428 164q7 4 22 20h-22v-20zM342 134q20 0 41 6h-8v2h-33v-8zM375 415q-17 4 -33 6v-12h33v6zM330 421q-15 -1 -32 -6v-6h32v12zM479 240q2 7 3 14.5t2 15.5h-13v-30h8zM484 282
q-2 18 -6 34h-7v-34h13zM267 726l17 20l-17 17l-17 -19zM423 726l17 20l-17 17l-17 -19zM387 397v-24h36l-7 24h-29zM257 397v-24h29v24h-29zM298 397v-24h32v24h-32zM342 397v-24h33v24h-33zM453 752h23l-45 48v-26zM297 752h23l-45 48v-26zM257 156l2 -2h27l11 30h-40v-28
zM414 154q1 0 2 1v29h-29v-30h27zM416 270h-29v-30h29v30zM286 270h-29v-30h29v30zM459 270h-31v-30h31v30zM416 228h-29v-32h29v32zM330 184h-32v-30h32v30zM257 361v-32h29v32h-29zM286 228h-29v-32h29v32zM375 270h-33v-30h33v30zM375 184h-33v-30h33v30zM330 270h-32
v-30h32v30zM387 361v-32h29v32h-29zM419 778v26l-49 -54h24zM263 778v26l-49 -54h24zM459 357l-3 4h-28v-32h31v28zM460 197l-1 31h-31v-32h31zM257 316v-34h29v34h-29zM245 270h-35v-30h35v30zM387 316v-34h29v34h-29zM298 361v-32h32v32h-32zM330 228h-32v-32h32v32z
M342 361v-32h33v32h-33zM375 228h-33v-32h33v32zM428 316v-34h31v34h-31zM217 361q-6 -8 -7 -12v-20h35v32h-28zM210 204l4 -8h31v32h-35v-24zM298 316v-34h32v34h-32zM342 316v-34h33v34h-33zM210 316v-34h35v34h-35zM336 121q-40 0 -73.5 16.5t-55.5 46.5l-15 -8
q21 -33 61 -53t83 -20q38 0 70.5 13.5t56.5 37.5t37.5 55.5t13.5 67.5q0 51 -28 91l-13 -7q24 -38 24 -84q0 -33 -12.5 -61.5t-34 -49.5t-51 -33t-63.5 -12zM267 662l-75 82l75 84l75 -82zM423 662l-75 82l75 84l76 -82zM55 277q0 57 22.5 108t61.5 88.5t90.5 59.5t110.5 22
q72 0 132.5 -31.5t98.5 -85.5l15 9q-42 57 -106 91t-140 34q-62 0 -117 -23.5t-96 -63.5t-65 -93.5t-24 -114.5q0 -91 49 -161l14 9q-22 31 -34 70.5t-12 81.5zM147 277q0 39 15 73t40.5 59.5t60 40t73.5 14.5q40 0 75 -14.5t61 -40t40.5 -59.5t14.5 -73t-14.5 -73
t-40.5 -59.5t-61 -40t-75 -14.5q-39 0 -73.5 14.5t-60 40t-40.5 59.5t-15 73zM564 425q-36 54 -95 85.5t-129 31.5q-56 0 -105 -21t-86.5 -57t-59 -84.5t-21.5 -102.5q0 -55 21.5 -103.5t59 -84.5t86.5 -57t105 -21q55 0 104.5 21t86.5 57t58.5 84.5t21.5 103.5
q0 40 -11.5 77t-33.5 68zM25 277q0 64 25 120t67.5 98t100 66t122.5 24q64 0 121.5 -24t100.5 -66t68 -98t25 -120t-25 -120t-68 -98t-100.5 -66.5t-121.5 -24.5q-65 0 -122.5 24.5t-100 66.5t-67.5 98t-25 120z" />
    <glyph glyph-name="oslash" unicode="&#xf8;" horiz-adv-x="692" 
d="M31 277q0 64 25 120t67.5 98t100 66t122.5 24q64 0 121.5 -24t100.5 -66t68 -98t25 -120t-25 -120t-68 -98t-100.5 -66.5t-121.5 -24.5q-65 0 -122.5 24.5t-100 66.5t-67.5 98t-25 120zM571 425q-37 54 -96 85.5t-129 31.5q-56 0 -105.5 -21t-86 -57t-58 -84.5
t-21.5 -102.5q0 -55 21.5 -103.5t58 -84.5t86 -57t105.5 -21q55 0 104.5 21t86.5 57t58.5 84.5t21.5 103.5q0 40 -11.5 77t-33.5 68zM417 449q25 -12 57 -39l-303 -214q-18 34 -18 75q0 39 14 74.5t39 61.5t60 41.5t76 15.5q40 0 75 -15zM517 350q16 -36 16 -73
q0 -39 -14.5 -73t-40.5 -59.5t-61 -40t-75 -14.5q-35 0 -66.5 11.5t-62.5 40.5zM62 277q0 57 22.5 108t61 88.5t90 59.5t110.5 22q72 0 132.5 -31.5t98.5 -85.5l15 9q-42 57 -106 91t-140 34q-62 0 -117 -23.5t-96 -63.5t-65 -93.5t-24 -114.5q0 -91 49 -161l15 9
q-46 67 -46 152zM196 268l203 141q-26 12 -57 12t-57.5 -11.5t-46 -31t-31 -45.5t-11.5 -56v-9zM479 221q5 12 7.5 25t3.5 27l-197 -132q18 -7 49 -7q48 0 83.5 24t53.5 63zM342 121q-28 0 -76 17l-28 -4q46 -31 104 -31q38 0 70.5 13.5t56.5 37.5t37.5 55.5t13.5 67.5
q0 28 -7 46l-12 -25v-14q0 -42 -13.5 -73t-35.5 -51t-51 -29.5t-59 -9.5zM412 403l-215 -150l-20 -35l276 190z" />
    <glyph glyph-name="ugrave" unicode="&#xf9;" horiz-adv-x="498" 
d="M264 121h-28l-9 -17h45zM303 159l-29 -33l9 -17l37 43zM225 124l-31 34l-17 -6l40 -44zM211 829l-49 -54h24l25 28v26zM182 572h-107l17 -17h73zM427 572h-111l17 -17h76zM319 717l-96 108v-26l73 -82h23zM284 711l-69 77l-17 -19l68 -78zM325 545l-17 18v-393l17 -6v381
zM81 549l-18 17v-461l18 4v440zM140 769l75 84l127 -142l-76 -84zM94 542v-434l84 -95h141l84 95v434h-65v-389l-54 -62h-69l-55 61v390h-66zM50 585h153v-418l29 -33h32l31 34v417h152v-491l-108 -124h-180l-109 124v491z" />
    <glyph glyph-name="uacute" unicode="&#xfa;" horiz-adv-x="498" 
d="M264 121h-28l-9 -17h45zM303 159l-29 -33l9 -17l37 43zM342 774l-45 52l6 -26l16 -26h23zM225 124l-31 34l-17 -6l40 -44zM182 572h-107l17 -17h73zM427 572h-111l17 -17h76zM284 828l-99 -113h22l77 87v26zM290 788l-69 -77l17 -20l68 78zM325 545l-17 18v-393l17 -6
v381zM81 549l-18 17v-461l18 4v440zM290 854l73 -85l-125 -143l-74 85zM94 542v-434l84 -95h141l84 95v434h-65v-389l-54 -62h-69l-55 61v390h-66zM50 585h153v-418l29 -33h32l31 34v417h152v-491l-108 -124h-180l-109 124v491z" />
    <glyph glyph-name="ucircumflex" unicode="&#xfb;" horiz-adv-x="498" 
d="M264 121h-28l-9 -17h45zM303 159l-29 -33l9 -17l37 43zM225 124l-31 34l-17 -6l40 -44zM182 572h-107l17 -17h73zM427 572h-111l17 -17h76zM237 827l-97 -110h23l74 84v26zM323 717h24l-98 110v-26zM311 712l-68 76l-68 -77l17 -20l51 59l50 -59zM325 545l-14 18v-393
l14 -6v381zM81 549l-18 17v-461l18 4v440zM243 683l-51 -57l-74 85l125 142l126 -141l-76 -85zM94 542v-434l84 -95h141l84 95v434h-65v-389l-54 -62h-69l-55 61v390h-66zM50 585h153v-418l29 -33h32l31 34v417h152v-491l-108 -124h-180l-109 124v491z" />
    <glyph glyph-name="udieresis" unicode="&#xfc;" horiz-adv-x="498" 
d="M264 121h-28l-9 -17h45zM187 746l-17 17l-17 -19l17 -18zM343 746l-17 17l-17 -17l17 -20zM223 752l-45 48v-26l21 -22h24zM379 752l-45 48v-26l21 -22h24zM303 159l-29 -33l9 -17l37 43zM225 124l-31 34l-17 -6l40 -44zM166 804l-49 -54h23l26 28v26zM322 804l-49 -54
h24l25 28v26zM182 572h-107l17 -17h73zM427 572h-111l17 -17h76zM325 545l-17 18v-393l17 -6v381zM81 549l-18 17v-461l18 4v440zM95 744l75 84l75 -82l-75 -84zM251 744l75 84l75 -84l-75 -82zM94 542v-434l84 -95h141l84 95v434h-65v-389l-54 -62h-69l-55 61v390h-66z
M50 585h153v-418l29 -33h32l31 34v417h152v-491l-108 -124h-180l-109 124v491z" />
    <glyph glyph-name="yacute" unicode="&#xfd;" horiz-adv-x="508" 
d="M336 774l-46 52v-26l23 -26h23zM71 550v26l-74 -85h22zM496 491h22l-74 85v-26zM278 828l-99 -113h22l77 87v26zM284 788l-69 -77l17 -20l68 78zM251 385l-168 191v-26l168 -191v26zM432 550v26l-168 -191v-26zM212 249l-18 -4v-274l18 42v236zM284 854l73 -85l-125 -143
l-74 85zM225 261v-227l65 74v153l195 223l-47 53l-180 -204l-181 204l-48 -54zM-28 483l105 120l181 -206l180 206l104 -119l-209 -239v-152l-152 -174v326z" />
    <glyph glyph-name="thorn" unicode="&#xfe;" horiz-adv-x="416" 
d="M389 285l-183 -210v-105h-152v615h152v-100h183v-200zM346 300v142h-183v100h-66v-529h66v79zM163 195v169h148zM84 9v537l-17 18v-573zM350 455l18 17h-175l-23 -17h180zM168 555l18 17h-111l18 -17h75zM186 242l84 94l-35 -14l-30 -34zM206 309l10 12h-10v-12z" />
    <glyph glyph-name="ydieresis" unicode="&#xff;" horiz-adv-x="508" 
d="M195 746l-17 17l-18 -19l18 -18zM351 746l-17 17l-18 -17l18 -20zM387 752l-45 48v-26l21 -22h24zM231 752l-45 48v-26l21 -22h24zM329 804l-48 -54h23l25 28v26zM173 804l-48 -54h23l25 28v26zM496 491h22l-74 85v-26zM71 550v26l-74 -85h22zM251 385l-168 191v-26
l168 -191v26zM432 550v26l-168 -191v-26zM212 249l-18 -4v-274l18 42v236zM258 744l76 84l75 -82l-75 -84zM102 744l76 84l75 -82l-75 -84zM225 261v-227l65 74v153l195 223l-47 53l-180 -204l-181 204l-48 -54zM-28 483l105 120l181 -206l180 206l104 -119l-209 -239v-152
l-152 -174v326z" />
    <glyph glyph-name="dotlessi" unicode="&#x131;" horiz-adv-x="246" 
d="M168 555l18 17h-111l18 -17h75zM84 16v530l-17 18v-589zM163 108v434h-66v-508zM206 92l-152 -171v664h152v-493z" />
    <glyph glyph-name="Lslash" unicode="&#x141;" horiz-adv-x="427" 
d="M206 462v-46h139v-165h-139v-117h87l146 -164h-385v666zM342 13l-69 78h-110v203h139v79h-139v74l-66 74v-508h245zM84 539l-17 45v-591l17 17v529zM95 543l75 -85l16 4l-108 126zM305 386l18 17h-121l-17 -17h120zM186 104h85l11 17h-78z" />
    <glyph glyph-name="lslash" unicode="&#x142;" horiz-adv-x="427" 
d="M206 462v-46h139v-165h-139v-117h87l146 -164h-385v666zM342 13l-69 78h-110v203h139v79h-139v74l-66 74v-508h245zM84 539l-17 45v-591l17 17v529zM95 543l75 -85l16 4l-108 126zM305 386l18 17h-121l-17 -17h120zM186 104h85l11 17h-78z" />
    <glyph glyph-name="OE" unicode="&#x152;" horiz-adv-x="907" 
d="M545 513l17 -42v75l-17 18v-51zM562 7v94l-17 -57v-54zM828 104l17 17h-165l-18 -17h166zM818 329l40 18h-182l-17 -18h159zM829 555l17 17h-293l18 -17h258zM342 121q-40 0 -73.5 17t-55.5 47l-15 -9q21 -33 61 -53t83 -20q38 0 70.5 13.5t56.5 37.5t37.5 55.5
t13.5 67.5q0 51 -28 91l-13 -7q24 -38 24 -84q0 -33 -12.5 -61.5t-34 -49.5t-51 -33t-63.5 -12zM456 533q53 -21 95 -66l-17 41l-48 30q-64 34 -140 34q-62 0 -117 -23.5t-96 -63.5t-65 -93.5t-24 -114.5q0 -91 49 -161l15 9q-46 67 -46 152q0 57 22.5 108t61 88.5t90 59.5
t110.5 22q63 0 110 -22zM196 277q0 -30 11.5 -56t31 -45.5t46 -30.5t57.5 -11t58 11t47 30.5t31.5 45.5t11.5 56t-11.5 56t-31.5 45.5t-47 31t-58 11.5t-57.5 -11.5t-46 -31t-31 -45.5t-11.5 -56zM153 277q0 39 15 73t40.5 59.5t60 40t73.5 14.5q40 0 75 -14.5t61 -40
t40.5 -59.5t14.5 -73t-14.5 -73t-40.5 -59.5t-61 -40t-75 -14.5q-39 0 -73.5 14.5t-60 40t-40.5 59.5t-15 73zM824 13v78h-183v147h99l68 78h-167v148h183v78h-249v-121l-2 2q-52 66 -106.5 92.5t-120.5 26.5q-56 0 -105.5 -21t-86 -57t-58 -84.5t-21.5 -102.5
q0 -55 21.5 -103.5t58 -84.5t86 -57t105.5 -21q27 0 57.5 7.5t61 24.5t59 43.5t51.5 65.5v-139h249zM468 561q16 -7 32 -16t32 -20v60h335v-164h-183v-61h219l-143 -165h-76v-61h183v-164h-335v57q-83 -59 -186 -59q-65 0 -122.5 24.5t-100 66.5t-67.5 98t-25 120t25 120
t67.5 98t100 66t122.5 24t122 -24z" />
    <glyph glyph-name="oe" unicode="&#x153;" horiz-adv-x="907" 
d="M545 513l17 -42v75l-17 18v-51zM562 7v94l-17 -57v-54zM828 104l17 17h-165l-18 -17h166zM818 329l40 18h-182l-17 -18h159zM829 555l17 17h-293l18 -17h258zM342 121q-40 0 -73.5 17t-55.5 47l-15 -9q21 -33 61 -53t83 -20q38 0 70.5 13.5t56.5 37.5t37.5 55.5
t13.5 67.5q0 51 -28 91l-13 -7q24 -38 24 -84q0 -33 -12.5 -61.5t-34 -49.5t-51 -33t-63.5 -12zM456 533q53 -21 95 -66l-17 41l-48 30q-64 34 -140 34q-62 0 -117 -23.5t-96 -63.5t-65 -93.5t-24 -114.5q0 -91 49 -161l15 9q-46 67 -46 152q0 57 22.5 108t61 88.5t90 59.5
t110.5 22q63 0 110 -22zM196 277q0 -30 11.5 -56t31 -45.5t46 -30.5t57.5 -11t58 11t47 30.5t31.5 45.5t11.5 56t-11.5 56t-31.5 45.5t-47 31t-58 11.5t-57.5 -11.5t-46 -31t-31 -45.5t-11.5 -56zM153 277q0 39 15 73t40.5 59.5t60 40t73.5 14.5q40 0 75 -14.5t61 -40
t40.5 -59.5t14.5 -73t-14.5 -73t-40.5 -59.5t-61 -40t-75 -14.5q-39 0 -73.5 14.5t-60 40t-40.5 59.5t-15 73zM824 13v78h-183v147h99l68 78h-167v148h183v78h-249v-121l-2 2q-52 66 -106.5 92.5t-120.5 26.5q-56 0 -105.5 -21t-86 -57t-58 -84.5t-21.5 -102.5
q0 -55 21.5 -103.5t58 -84.5t86 -57t105.5 -21q27 0 57.5 7.5t61 24.5t59 43.5t51.5 65.5v-139h249zM468 561q16 -7 32 -16t32 -20v60h335v-164h-183v-61h219l-143 -165h-76v-61h183v-164h-335v57q-83 -59 -186 -59q-65 0 -122.5 24.5t-100 66.5t-67.5 98t-25 120t25 120
t67.5 98t100 66t122.5 24t122 -24z" />
    <glyph glyph-name="Scaron" unicode="&#x160;" horiz-adv-x="466" 
d="M264 143l-18 -20v-27l41 47h-23zM187 799v29l-48 -54h25zM238 785l-39 42l2 -29l38 -45zM321 774l31 -1l-53 58l2 -32zM290 800l-2 28l-39 -42v-31zM141 212l-74 -86h22l52 60v26zM234 127l-81 91v-26l81 -91v26zM401 457l-153 172v-26l130 -146h23zM176 767l69 -76
l67 77l-17 20l-50 -59l-51 59zM236 603v26l-193 -217h24zM437 153l-218 248h-22l217 -248h23zM102 121l140 -157l161 183l-228 260l67 75l78 -87l48 54l-126 141l-163 -184l230 -258l-67 -75l-92 103zM245 796l50 57l74 -85l-113 -129l170 -190l-106 -119l-78 87l-10 -10
l228 -260l-218 -248l-196 222l104 121l92 -105l9 10l-230 259l209 236l-112 125l76 85z" />
    <glyph glyph-name="scaron" unicode="&#x161;" horiz-adv-x="466" 
d="M264 143l-18 -20v-27l41 47h-23zM187 799v29l-48 -54h25zM238 785l-39 42l2 -29l38 -45zM321 774l31 -1l-53 58l2 -32zM290 800l-2 28l-39 -42v-31zM141 212l-74 -86h22l52 60v26zM234 127l-81 91v-26l81 -91v26zM401 457l-153 172v-26l130 -146h23zM176 767l69 -76
l67 77l-17 20l-50 -59l-51 59zM236 603v26l-193 -217h24zM437 153l-218 248h-22l217 -248h23zM102 121l140 -157l161 183l-228 260l67 75l78 -87l48 54l-126 141l-163 -184l230 -258l-67 -75l-92 103zM245 796l50 57l74 -85l-113 -129l170 -190l-106 -119l-78 87l-10 -10
l228 -260l-218 -248l-196 222l104 121l92 -105l9 10l-230 259l209 236l-112 125l76 85z" />
    <glyph glyph-name="Ydieresis" unicode="&#x178;" horiz-adv-x="508" 
d="M195 746l-17 17l-18 -19l18 -18zM351 746l-17 17l-18 -17l18 -20zM387 752l-45 48v-26l21 -22h24zM231 752l-45 48v-26l21 -22h24zM329 804l-48 -54h23l25 28v26zM173 804l-48 -54h23l25 28v26zM496 491h22l-74 85v-26zM71 550v26l-74 -85h22zM251 385l-168 191v-26
l168 -191v26zM432 550v26l-168 -191v-26zM212 249l-18 -4v-274l18 42v236zM258 744l76 84l75 -82l-75 -84zM102 744l76 84l75 -82l-75 -84zM225 261v-227l65 74v153l195 223l-47 53l-180 -204l-181 204l-48 -54zM-28 483l105 120l181 -206l180 206l104 -119l-209 -239v-152
l-152 -174v326z" />
    <glyph glyph-name="Zcaron" unicode="&#x17d;" horiz-adv-x="624" 
d="M270 799v29l-49 -54h25zM321 785l-39 42l2 -29l38 -45zM403 774l31 -1l-52 58l1 -32zM372 800l-2 28l-39 -42v-31zM144 547l-17 17v-119l17 17v85zM558 474l-82 94l-9 -21l68 -73h23zM258 767l69 -76l68 77l-18 20l-50 -59l-50 59zM529 121h-260l-40 -17h283zM466 574
h-332l18 -17h305zM350 425l-288 -327h22l304 344zM327 796l50 57l75 -85l-125 -142l-127 141l77 85zM507 13v78h-316l332 377l-66 76h-300v-78h269l-330 -374l68 -79h343zM551 -30h-406l-106 122l291 330h-216v165h363l103 -119l-294 -334h265v-164z" />
    <glyph glyph-name="zcaron" unicode="&#x17e;" horiz-adv-x="624" 
d="M270 799v29l-49 -54h25zM321 785l-39 42l2 -29l38 -45zM403 774l31 -1l-52 58l1 -32zM372 800l-2 28l-39 -42v-31zM144 547l-17 17v-119l17 17v85zM558 474l-82 94l-9 -21l68 -73h23zM258 767l69 -76l68 77l-18 20l-50 -59l-50 59zM529 121h-260l-40 -17h283zM466 574
h-332l18 -17h305zM350 425l-288 -327h22l304 344zM327 796l50 57l75 -85l-125 -142l-127 141l77 85zM507 13v78h-316l332 377l-66 76h-300v-78h269l-330 -374l68 -79h343zM551 -30h-406l-106 122l291 330h-216v165h363l103 -119l-294 -334h265v-164z" />
    <glyph glyph-name="circumflex" unicode="&#x2c6;" horiz-adv-x="310" 
d="M148 801v26l-96 -110h23zM160 801l75 -84h23l-98 110v-26zM205 691l18 21l-69 76l-67 -77l17 -20l50 59zM205 627l-51 56l-50 -57l-75 85l125 142l127 -141z" />
    <glyph glyph-name="caron" unicode="&#x2c7;" horiz-adv-x="310" 
d="M75 774l24 25v29l-49 -54h25zM151 753l-1 32l-39 42l2 -29zM212 799l20 -25l32 -1l-53 58zM160 755l41 45l-2 28l-39 -42v-31zM106 788l-18 -21l68 -76l68 77l-18 20l-50 -59zM106 852l50 -56l50 57l75 -85l-125 -142l-127 141z" />
    <glyph glyph-name="ring" unicode="&#x2da;" horiz-adv-x="434" 
d="M248 717l23 26h-17l-6 -7v-19zM239 717v19l-6 7h-16zM250 857l89 -104h16l-104 120zM236 881l-106 -125l16 -6l95 112zM244 699l-44 48l44 51l43 -51zM331 747l-87 103l-87 -103l87 -102zM372 747l-128 -149l-136 149l132 153z" />
    <glyph glyph-name="tilde" unicode="&#x2dc;" horiz-adv-x="310" 
d="M285 774h23l-45 52v-26zM197 759v27l-37 41v-26zM209 781v-21l42 42v26zM148 801v26l-96 -110h23zM205 735l-51 53l-67 -77l17 -20l50 59l50 -57l68 76l-16 19zM154 683l-50 -57l-75 85l125 142l51 -56l51 57l73 -85l-125 -143z" />
    <glyph glyph-name="endash" unicode="&#x2013;" horiz-adv-x="515" 
d="M52 176v86l-17 17v-120zM453 271l18 17h-428l18 -17h392zM450 179v79h-385v-79h385zM493 301v-165h-471v165h471z" />
    <glyph glyph-name="emdash" unicode="&#x2014;" horiz-adv-x="845" 
d="M52 176v86l-17 17v-120zM783 271l18 17h-758l18 -17h722zM780 179v79h-715v-79h715zM823 301v-165h-801v165h801z" />
    <glyph glyph-name="quoteleft" unicode="&#x2018;" horiz-adv-x="208" 
d="M85 544l36 -71v71h-36zM128 557l12 17h-93l26 -17h55zM116 445l-45 101l-22 14l61 -150zM160 380l-52 9l-80 198h132v-207z" />
    <glyph glyph-name="quoteright" unicode="&#x2019;" horiz-adv-x="208" 
d="M97 543v-66l25 67h-24zM133 557l21 17h-81l17 -17h43zM84 427v118l-17 18v-154zM106 380l-52 9v198h132z" />
    <glyph glyph-name="quotesinglbase" unicode="&#x201a;" horiz-adv-x="208" 
d="M97 66v-66l25 67h-24zM133 80l21 17h-81l17 -17h43zM84 -50v118l-17 18v-154zM106 -97l-52 9v198h132z" />
    <glyph glyph-name="quotedblleft" unicode="&#x201c;" horiz-adv-x="303" 
d="M200 389l-31 77v-86l-52 9l-80 198h215v-207zM233 574h-177l26 -17h139zM81 546l-22 14l61 -150l6 35zM169 534v-41l34 -83l6 35zM213 473v71h-35zM130 473v71h-35z" />
    <glyph glyph-name="quotedblright" unicode="&#x201d;" horiz-adv-x="303" 
d="M183 477l25 67h-25v-67zM97 477l25 67h-25v-67zM153 522v-113l17 18v109zM84 550l-17 17v-159l17 17v125zM216 558l28 16h-167l18 -17h121v1zM192 380l-52 9v78l-34 -87l-52 9v198h217z" />
    <glyph glyph-name="quotedblbase" unicode="&#x201e;" horiz-adv-x="303" 
d="M183 0l25 67h-25v-67zM97 0l25 67h-25v-67zM153 45v-113l17 18v109zM84 73l-17 17v-159l17 17v125zM216 81l28 16h-167l18 -17h121v1zM192 -97l-52 9v78l-34 -87l-52 9v198h217z" />
    <glyph glyph-name="bullet" unicode="&#x2022;" horiz-adv-x="692" 
d="M342 433q42 0 75 -17.5t55 -47.5l15 9q-21 33 -60.5 53t-84.5 20q-38 0 -70 -14t-56 -37.5t-37.5 -55t-13.5 -66.5q0 -26 7 -50.5t20 -41.5l14 7q-24 39 -24 85q0 32 12.5 60.5t34 49.5t51 33.5t62.5 12.5zM489 277q0 29 -11.5 55t-31 45.5t-46.5 31t-58 11.5
t-57.5 -11.5t-46.5 -31t-31.5 -45.5t-11.5 -55q0 -31 11.5 -57t31.5 -45.5t46.5 -30.5t57.5 -11t58 11t46.5 30.5t31 45.5t11.5 57zM532 277q0 -39 -14.5 -73.5t-40 -60t-60.5 -40t-75 -14.5t-74.5 14.5t-60 40t-40.5 60t-15 73.5q0 38 15 72t40.5 59.5t60 40t74.5 14.5
t75 -14.5t60.5 -40t40 -59.5t14.5 -72z" />
    <glyph glyph-name="ellipsis" unicode="&#x2026;" horiz-adv-x="1135" 
d="M121 67q0 27 17 46.5t41 19.5q21 0 34 -13l12 12q-21 18 -46 18q-31 0 -53 -24.5t-22 -58.5q0 -27 12 -46l12 12q-7 13 -7 34zM134 67q0 -23 13 -38t32 -15q18 0 31 15t13 38q0 21 -13 37t-31 16q-19 0 -32 -16t-13 -37zM91 67q0 19 7 36.5t19 30.5t28 21t34 8t34 -8
t28 -21t19 -30.5t7 -36.5q0 -21 -7 -38.5t-19 -30t-28 -20t-34 -7.5t-34 7.5t-28 20t-19 30t-7 38.5zM510 67q0 27 17 46.5t41 19.5q21 0 34 -13l12 12q-21 18 -46 18q-31 0 -53 -24.5t-22 -58.5q0 -27 12 -46l12 12q-7 13 -7 34zM523 67q0 -23 13 -38t32 -15q18 0 31 15
t13 38q0 21 -13 37t-31 16q-19 0 -32 -16t-13 -37zM480 67q0 19 7 36.5t19 30.5t28 21t34 8t34 -8t28 -21t19 -30.5t7 -36.5q0 -21 -7 -38.5t-19 -30t-28 -20t-34 -7.5t-34 7.5t-28 20t-19 30t-7 38.5zM898 67q0 27 17 46.5t41 19.5q21 0 34 -13l12 12q-21 18 -46 18
q-31 0 -53 -24.5t-22 -58.5q0 -27 12 -46l12 12q-7 13 -7 34zM911 67q0 -23 13 -38t32 -15q18 0 31 15t13 38q0 21 -13 37t-31 16q-19 0 -32 -16t-13 -37zM868 67q0 19 7 36.5t19 30.5t28 21t34 8t34 -8t28 -21t19 -30.5t7 -36.5q0 -21 -7 -38.5t-19 -30t-28 -20t-34 -7.5
t-34 7.5t-28 20t-19 30t-7 38.5z" />
    <glyph glyph-name="guilsinglleft" unicode="&#x2039;" horiz-adv-x="302" 
d="M252 407h21l-74 88v-26zM254 201h23l-78 93h-23zM46 305l141 164v26l-163 -190h22zM194 141l48 55l-88 104l85 102l-46 54l-134 -156zM299 196l-105 -119l-192 223l191 222l102 -121l-84 -101z" />
    <glyph glyph-name="guilsinglright" unicode="&#x203a;" horiz-adv-x="302" 
d="M47 409l53 60v26l-76 -86h23zM50 203l73 89h-24l-72 -89h23zM254 305h22l-164 190v-26zM108 141l134 158l-136 157l-48 -53l87 -105l-84 -103zM2 403l104 119l193 -223l-191 -222l-104 120l83 101z" />
    <glyph glyph-name="fraction" unicode="&#x2044;" horiz-adv-x="102" 
d="M197 516l24 4l-83 57l9 -27zM-90 49l224 500l-8 25l-237 -534zM186 508l-42 30l-220 -493l42 -26zM-14 -44l-117 72l256 574l116 -79z" />
    <glyph glyph-name="Euro" unicode="&#x20ac;" horiz-adv-x="461" 
d="M337 356h112v-130h-231l-7 -8l9 -11h229v-130h-114l106 -119l-104 -119l-334 379l334 371l103 -120zM406 270v43h-166l143 156l-47 54l-276 -305l277 -314l47 54l-145 163h167v43h-205l-48 54l48 52h205zM330 536v26l-306 -338h23zM205 177h206l17 17h-217l-18 19h-20z
M396 -36h23l-100 114l-7 -17zM409 326l18 17h-105l-28 -17h115zM395 475h23l-76 87v-26z" />
    <glyph glyph-name="trademark" unicode="&#x2122;" horiz-adv-x="542" 
d="M162 582v-224h-59v224h-71v54h199v-54h-69zM437 511l-60 -154l-66 160v-158h-55v277h67l53 -143l52 143h65v-277h-56v152z" />
    <glyph glyph-name=".null" horiz-adv-x="0" 
 />
    <glyph glyph-name="nonmarkingreturn" horiz-adv-x="270" 
 />
    <glyph glyph-name="periodcentered" unicode="&#xb7;" horiz-adv-x="259" 
d="M71 298q0 27 17 46.5t41 19.5q21 0 34 -13l12 12q-21 18 -46 18q-31 0 -53 -24.5t-22 -58.5q0 -27 12 -46l12 12q-7 13 -7 34zM84 298q0 -23 13 -38t32 -15q18 0 31 15t13 38q0 21 -13 37t-31 16q-19 0 -32 -16t-13 -37zM41 298q0 19 7 36.5t19 30.5t28 21t34 8t34 -8
t28 -21t19 -30.5t7 -36.5q0 -21 -7 -38.5t-19 -30t-28 -20t-34 -7.5t-34 7.5t-28 20t-19 30t-7 38.5z" />
    </font>
</defs>
</svg>
